<svg width="32" height="32" viewBox="0 0 32 32" fill="none" xmlns="http://www.w3.org/2000/svg">
<path d="M15.0533 16.0002L19.7733 11.2802C20.0217 11.0304 20.1611 10.6925 20.1611 10.3403C20.1611 9.98801 20.0217 9.65007 19.7733 9.40026C19.6494 9.27528 19.5019 9.17609 19.3394 9.1084C19.177 9.04071 19.0027 9.00586 18.8267 9.00586C18.6506 9.00586 18.4764 9.04071 18.3139 9.1084C18.1514 9.17609 18.0039 9.27528 17.88 9.40026L12.2267 15.0536C12.1017 15.1775 12.0025 15.325 11.9348 15.4875C11.8671 15.6499 11.8323 15.8242 11.8323 16.0002C11.8323 16.1762 11.8671 16.3505 11.9348 16.513C12.0025 16.6755 12.1017 16.8229 12.2267 16.9469L17.88 22.6669C18.0046 22.7905 18.1523 22.8882 18.3148 22.9546C18.4772 23.0209 18.6512 23.0546 18.8267 23.0535C19.0021 23.0546 19.1761 23.0209 19.3385 22.9546C19.501 22.8882 19.6487 22.7905 19.7733 22.6669C20.0217 22.4171 20.1611 22.0791 20.1611 21.7269C20.1611 21.3746 20.0217 21.0367 19.7733 20.7869L15.0533 16.0002Z" fill="black"/>
</svg>
