<svg width="32" height="32" viewBox="0 0 32 32" fill="none" xmlns="http://www.w3.org/2000/svg">
<path d="M15.952 11C16.346 11 16.7311 10.8827 17.0587 10.6629C17.3863 10.4432 17.6416 10.1308 17.7924 9.76537C17.9431 9.39992 17.9826 8.99778 17.9057 8.60982C17.8289 8.22186 17.6391 7.86549 17.3605 7.58579C17.082 7.30608 16.727 7.1156 16.3406 7.03843C15.9542 6.96126 15.5537 7.00087 15.1897 7.15224C14.8257 7.30362 14.5146 7.55996 14.2957 7.88886C14.0768 8.21776 13.96 8.60444 13.96 9C13.96 9.53043 14.1699 10.0391 14.5434 10.4142C14.917 10.7893 15.4237 11 15.952 11ZM15.952 21C15.558 21 15.1729 21.1173 14.8453 21.3371C14.5177 21.5568 14.2624 21.8692 14.1116 22.2346C13.9609 22.6001 13.9214 23.0022 13.9983 23.3902C14.0751 23.7781 14.2648 24.1345 14.5434 24.4142C14.822 24.6939 15.177 24.8844 15.5634 24.9616C15.9498 25.0387 16.3503 24.9991 16.7143 24.8478C17.0783 24.6964 17.3894 24.44 17.6083 24.1111C17.8272 23.7822 17.944 23.3956 17.944 23C17.944 22.4696 17.7341 21.9609 17.3605 21.5858C16.987 21.2107 16.4803 21 15.952 21ZM15.952 14C15.558 14 15.1729 14.1173 14.8453 14.3371C14.5177 14.5568 14.2624 14.8692 14.1116 15.2346C13.9609 15.6001 13.9214 16.0022 13.9983 16.3902C14.0751 16.7781 14.2648 17.1345 14.5434 17.4142C14.822 17.6939 15.177 17.8844 15.5634 17.9616C15.9498 18.0387 16.3503 17.9991 16.7143 17.8478C17.0783 17.6964 17.3894 17.44 17.6083 17.1111C17.8272 16.7822 17.944 16.3956 17.944 16C17.944 15.4696 17.7341 14.9609 17.3605 14.5858C16.987 14.2107 16.4803 14 15.952 14Z" fill="black"/>
</svg>
