<svg width="20" height="20" viewBox="0 0 20 20" fill="none" xmlns="http://www.w3.org/2000/svg">
<path d="M12.95 10.9548L8.23334 6.2465C8.15587 6.16839 8.0637 6.1064 7.96215 6.06409C7.8606 6.02178 7.75168 6 7.64167 6C7.53166 6 7.42274 6.02178 7.32119 6.06409C7.21964 6.1064 7.12747 6.16839 7.05001 6.2465C6.8948 6.40263 6.80768 6.61384 6.80768 6.834C6.80768 7.05415 6.8948 7.26536 7.05001 7.4215L11.175 11.5882L7.05001 15.7132C6.8948 15.8693 6.80768 16.0805 6.80768 16.3007C6.80768 16.5208 6.8948 16.732 7.05001 16.8882C7.12718 16.9669 7.21922 17.0295 7.32078 17.0725C7.42235 17.1154 7.53142 17.1377 7.64167 17.1382C7.75193 17.1377 7.861 17.1154 7.96256 17.0725C8.06412 17.0295 8.15616 16.9669 8.23334 16.8882L12.95 12.1798C13.0346 12.1018 13.1021 12.0071 13.1483 11.9017C13.1944 11.7963 13.2183 11.6824 13.2183 11.5673C13.2183 11.4522 13.1944 11.3384 13.1483 11.233C13.1021 11.1276 13.0346 11.0329 12.95 10.9548Z" fill="#8D8D8D"/>
</svg>
