<svg width="32" height="32" viewBox="0 0 32 32" fill="none" xmlns="http://www.w3.org/2000/svg">
<path d="M10.4 20.8009H13.792C13.8973 20.8015 14.0017 20.7814 14.0991 20.7416C14.1966 20.7018 14.2852 20.6431 14.36 20.569L19.896 15.0266L22.168 12.8032C22.243 12.7289 22.3025 12.6404 22.3431 12.543C22.3837 12.4455 22.4046 12.341 22.4046 12.2354C22.4046 12.1298 22.3837 12.0253 22.3431 11.9278C22.3025 11.8304 22.243 11.7419 22.168 11.6676L18.776 8.23657C18.7016 8.16161 18.6131 8.10211 18.5157 8.06151C18.4182 8.0209 18.3136 8 18.208 8C18.1024 8 17.9978 8.0209 17.9003 8.06151C17.8029 8.10211 17.7144 8.16161 17.64 8.23657L15.384 10.4999L9.832 16.0423C9.75785 16.117 9.69919 16.2057 9.65938 16.3031C9.61957 16.4005 9.59939 16.5049 9.6 16.6101V20.0012C9.6 20.2133 9.68429 20.4167 9.83431 20.5667C9.98434 20.7167 10.1878 20.8009 10.4 20.8009ZM18.208 9.93208L20.472 12.1954L19.336 13.3311L17.072 11.0677L18.208 9.93208ZM11.2 16.938L15.944 12.1954L18.208 14.4588L13.464 19.2014H11.2V16.938ZM23.2 22.4005H8.8C8.58783 22.4005 8.38434 22.4847 8.23431 22.6347C8.08429 22.7847 8 22.9881 8 23.2002C8 23.4123 8.08429 23.6158 8.23431 23.7658C8.38434 23.9157 8.58783 24 8.8 24H23.2C23.4122 24 23.6157 23.9157 23.7657 23.7658C23.9157 23.6158 24 23.4123 24 23.2002C24 22.9881 23.9157 22.7847 23.7657 22.6347C23.6157 22.4847 23.4122 22.4005 23.2 22.4005Z" fill="black"/>
</svg>
