<svg width="18" height="21" viewBox="0 0 18 21" fill="none" xmlns="http://www.w3.org/2000/svg">
<path d="M15.7266 17.4922C15.3203 18.1172 14.875 18.6875 14.3906 19.2031C13.9219 19.7031 13.3516 19.9609 12.6797 19.9766C12.0078 19.9922 11.4766 19.8672 11.0859 19.6016C10.7109 19.3203 10.1484 19.1797 9.39844 19.1797C8.63281 19.1797 8.05469 19.3125 7.66406 19.5781C7.27344 19.8281 6.75781 19.9688 6.11719 20C5.46094 20.0312 4.875 19.7734 4.35938 19.2266C3.85938 18.6641 3.39844 18.0781 2.97656 17.4688C2.55469 16.8438 2.16406 16.1172 1.80469 15.2891C1.46094 14.4453 1.21094 13.5703 1.05469 12.6641C0.898438 11.7422 0.859375 10.8281 0.9375 9.92188C1.01562 9 1.27344 8.15625 1.71094 7.39062C2.14844 6.625 2.73438 6.02344 3.46875 5.58594C4.20312 5.13281 4.99219 4.89844 5.83594 4.88281C6.47656 4.86719 7.08594 5.00781 7.66406 5.30469C8.24219 5.60156 8.73438 5.75 9.14062 5.75C9.53125 5.75 10.0703 5.57812 10.7578 5.23438C11.4453 4.89063 12.1719 4.75781 12.9375 4.83594C13.2656 4.85156 13.8047 4.97656 14.5547 5.21094C15.3203 5.42969 15.9922 5.96875 16.5703 6.82812C16.5391 6.85938 16.1719 7.1875 15.4688 7.8125C14.7656 8.42188 14.4219 9.35938 14.4375 10.625C14.4531 12.1406 14.8984 13.1953 15.7734 13.7891C16.6484 14.3672 17.0938 14.6641 17.1094 14.6797C17.0938 14.7109 16.9766 15.0156 16.7578 15.5938C16.5547 16.1719 16.2109 16.8047 15.7266 17.4922ZM10.0312 1.50781C10.3906 1.08594 10.8438 0.734375 11.3906 0.453125C11.9375 0.171875 12.4609 0.0234375 12.9609 0.0078125C13.0234 0.585937 12.9531 1.15625 12.75 1.71875C12.5469 2.28125 12.2734 2.77344 11.9297 3.19531C11.5859 3.61719 11.1484 3.96875 10.6172 4.25C10.0859 4.53125 9.53906 4.64844 8.97656 4.60156C8.89844 4.03906 8.96875 3.47656 9.1875 2.91406C9.42188 2.35156 9.70312 1.88281 10.0312 1.50781Z" fill="white"/>
</svg>
