<svg width="160" height="160" viewBox="0 0 160 160" fill="none" xmlns="http://www.w3.org/2000/svg">
<path d="M50 32.4404H42.6829V72.6843H50V32.4404Z" fill="black"/>
<path d="M73.7805 32.4404H62.8049V72.6843H73.7805V32.4404Z" fill="black"/>
<path d="M31.7073 32.4404H24.3903V72.6843H31.7073V32.4404Z" fill="black"/>
<path d="M57.3171 32.4404H53.6585V72.6843H57.3171V32.4404Z" fill="black"/>
<path d="M39.0244 32.4404H35.3659V72.6843H39.0244V32.4404Z" fill="black"/>
<path d="M101.22 32.4404H93.9025V72.6843H101.22V32.4404Z" fill="black"/>
<path d="M125 32.4404H114.024V72.6843H125V32.4404Z" fill="black"/>
<path d="M81.0976 32.4404H77.439V72.6843H81.0976V32.4404Z" fill="black"/>
<path d="M108.537 32.4404H104.878V72.6843H108.537V32.4404Z" fill="black"/>
<path d="M135.976 32.4404H128.659V72.6843H135.976V32.4404Z" fill="black"/>
<path d="M90.2439 32.4404H86.5854V72.6843H90.2439V32.4404Z" fill="black"/>
<path d="M50 87.3174H42.6829V120.244H50V87.3174Z" fill="black"/>
<path d="M73.7805 87.3174H62.8049V120.244H73.7805V87.3174Z" fill="black"/>
<path d="M31.7073 87.3174H24.3903V127.561H31.7073V87.3174Z" fill="black"/>
<path d="M57.3171 87.3174H53.6585V120.244H57.3171V87.3174Z" fill="black"/>
<path d="M39.0244 87.3174H35.3659V120.244H39.0244V87.3174Z" fill="black"/>
<path d="M101.22 87.3174H93.9025V120.244H101.22V87.3174Z" fill="black"/>
<path d="M125 87.3174H114.024V120.244H125V87.3174Z" fill="black"/>
<path d="M81.0976 87.3174H77.439V120.244H81.0976V87.3174Z" fill="black"/>
<path d="M108.537 87.3174H104.878V120.244H108.537V87.3174Z" fill="black"/>
<path d="M135.976 87.3174H128.659V127.561H135.976V87.3174Z" fill="black"/>
<path d="M90.2439 87.3174H86.5854V120.244H90.2439V87.3174Z" fill="black"/>
<path d="M28.1707 160H16.0976C7.24391 160 3.8147e-06 152.756 3.8147e-06 143.902V131.829C3.8147e-06 129.414 1.60976 127.805 4.02439 127.805C6.43903 127.805 8.04878 129.414 8.04878 131.829V143.902C8.04878 148.329 11.6707 151.951 16.0976 151.951H28.1707C30.5854 151.951 32.1951 153.561 32.1951 155.975C32.1951 158.39 30.5854 160 28.1707 160Z" fill="#00AA96"/>
<path d="M143.902 160H131.829C129.415 160 127.805 158.39 127.805 155.975C127.805 153.561 129.415 151.951 131.829 151.951H143.902C148.329 151.951 151.951 148.329 151.951 143.902V131.829C151.951 129.414 153.561 127.805 155.976 127.805C158.39 127.805 160 129.414 160 131.829V143.902C160 152.756 152.756 160 143.902 160Z" fill="#00AA96"/>
<path d="M4.02439 32.1951C1.60976 32.1951 0 30.5854 0 28.1707V16.0976C0 7.2439 7.2439 0 16.0976 0H28.1707C30.5854 0 32.1951 1.60976 32.1951 4.02439C32.1951 6.43902 30.5854 8.04878 28.1707 8.04878H16.0976C11.6707 8.04878 8.04878 11.6707 8.04878 16.0976V28.1707C8.04878 30.5854 6.43902 32.1951 4.02439 32.1951Z" fill="#00AA96"/>
<path d="M155.976 32.1951C153.561 32.1951 151.951 30.5854 151.951 28.1707V16.0976C151.951 11.6707 148.329 8.04878 143.902 8.04878H131.829C129.415 8.04878 127.805 6.43902 127.805 4.02439C127.805 1.60976 129.415 0 131.829 0H143.902C152.756 0 160 7.2439 160 16.0976V28.1707C160 30.5854 158.39 32.1951 155.976 32.1951Z" fill="#00AA96"/>
<path d="M149.512 83.6579H10.4878C8.29269 83.6579 6.82927 82.1945 6.82927 79.9994C6.82927 77.8042 8.29269 76.3408 10.4878 76.3408H149.512C151.707 76.3408 153.171 77.8042 153.171 79.9994C153.171 82.1945 151.707 83.6579 149.512 83.6579Z" fill="#00AA96"/>
<path d="M43.7805 123.902H36.0976V127.561H43.7805V123.902Z" fill="black"/>
<path d="M55.122 123.902H47.439V127.561H55.122V123.902Z" fill="black"/>
<path d="M66.8293 123.902H59.1463V127.561H66.8293V123.902Z" fill="black"/>
<path d="M78.1707 123.902H70.4878V127.561H78.1707V123.902Z" fill="black"/>
<path d="M89.5122 123.902H81.8293V127.561H89.5122V123.902Z" fill="black"/>
<path d="M101.219 123.902H93.5366V127.561H101.219V123.902Z" fill="black"/>
<path d="M112.561 123.902H104.878V127.561H112.561V123.902Z" fill="black"/>
<path d="M123.902 123.902H116.219V127.561H123.902V123.902Z" fill="black"/>
</svg>
