<svg width="30" height="30" viewBox="0 0 30 30" fill="none" xmlns="http://www.w3.org/2000/svg">
<path d="M20.8333 10.416H19.7667L19.5 9.5827C19.3271 9.09373 19.0065 8.67062 18.5824 8.372C18.1584 8.07338 17.652 7.91403 17.1333 7.91603H12.8667C12.343 7.91701 11.8328 8.08244 11.4081 8.38896C10.9835 8.69547 10.6658 9.12761 10.5 9.62437L10.2333 10.4577H9.16666C8.50362 10.4577 7.86774 10.7211 7.3989 11.1899C6.93006 11.6588 6.66666 12.2947 6.66666 12.9577V19.6244C6.66666 20.2874 6.93006 20.9233 7.3989 21.3921C7.86774 21.861 8.50362 22.1244 9.16666 22.1244H20.8333C21.4964 22.1244 22.1323 21.861 22.6011 21.3921C23.0699 20.9233 23.3333 20.2874 23.3333 19.6244V12.9577C23.3389 12.6259 23.2783 12.2963 23.1551 11.9882C23.032 11.6801 22.8487 11.3995 22.616 11.1629C22.3833 10.9264 22.1058 10.7385 21.7998 10.6102C21.4937 10.482 21.1652 10.416 20.8333 10.416ZM21.6667 19.5827C21.6667 19.8037 21.5789 20.0157 21.4226 20.172C21.2663 20.3282 21.0543 20.416 20.8333 20.416H9.16666C8.94565 20.416 8.73369 20.3282 8.57741 20.172C8.42113 20.0157 8.33333 19.8037 8.33333 19.5827V12.916C8.33333 12.695 8.42113 12.4831 8.57741 12.3268C8.73369 12.1705 8.94565 12.0827 9.16666 12.0827H10.8333C11.0151 12.0922 11.1949 12.0419 11.3454 11.9396C11.4958 11.8373 11.6087 11.6885 11.6667 11.516L12.1167 10.1494C12.1726 9.98385 12.2791 9.84009 12.4211 9.7384C12.5632 9.63672 12.7336 9.58225 12.9083 9.5827H17.175C17.3497 9.58225 17.5201 9.63672 17.6622 9.7384C17.8042 9.84009 17.9108 9.98385 17.9667 10.1494L18.4167 11.516C18.4701 11.675 18.5703 11.8141 18.7041 11.9152C18.8379 12.0163 18.9991 12.0747 19.1667 12.0827H20.8333C21.0543 12.0827 21.2663 12.1705 21.4226 12.3268C21.5789 12.4831 21.6667 12.695 21.6667 12.916V19.5827ZM15 12.0827C14.3407 12.0827 13.6963 12.2782 13.1481 12.6445C12.5999 13.0107 12.1727 13.5313 11.9204 14.1404C11.6681 14.7495 11.6021 15.4197 11.7307 16.0663C11.8593 16.7129 12.1768 17.3069 12.643 17.7731C13.1091 18.2392 13.7031 18.5567 14.3497 18.6853C14.9963 18.8139 15.6665 18.7479 16.2756 18.4956C16.8847 18.2433 17.4053 17.8161 17.7716 17.2679C18.1378 16.7198 18.3333 16.0753 18.3333 15.416C18.3333 14.532 17.9821 13.6841 17.357 13.059C16.7319 12.4339 15.8841 12.0827 15 12.0827ZM15 17.0827C14.6704 17.0827 14.3481 16.985 14.074 16.8018C13.8 16.6187 13.5863 16.3584 13.4602 16.0538C13.3341 15.7493 13.301 15.4142 13.3654 15.0909C13.4297 14.7676 13.5884 14.4706 13.8215 14.2375C14.0546 14.0044 14.3515 13.8457 14.6748 13.7814C14.9981 13.7171 15.3333 13.7501 15.6378 13.8762C15.9423 14.0024 16.2026 14.216 16.3858 14.4901C16.5689 14.7642 16.6667 15.0864 16.6667 15.416C16.6667 15.8581 16.4911 16.282 16.1785 16.5945C15.8659 16.9071 15.442 17.0827 15 17.0827Z" fill="#8D8D8D"/>
</svg>
