<svg width="24" height="24" viewBox="0 0 24 24" fill="none" xmlns="http://www.w3.org/2000/svg">
<path fill-rule="evenodd" clip-rule="evenodd" d="M12 22C17.5228 22 22 17.5228 22 12C22 6.47715 17.5228 2 12 2C6.47715 2 2 6.47715 2 12C2 17.5228 6.47715 22 12 22ZM14.6995 8.79079L10.4095 13.0908L8.75954 11.4408C8.6699 11.3361 8.55958 11.2511 8.43551 11.1911C8.31145 11.131 8.17632 11.0973 8.0386 11.092C7.90088 11.0867 7.76355 11.1099 7.63522 11.1602C7.5069 11.2104 7.39035 11.2867 7.29289 11.3841C7.19544 11.4816 7.11918 11.5981 7.06891 11.7265C7.01863 11.8548 6.99543 11.9921 7.00075 12.1298C7.00606 12.2676 7.03979 12.4027 7.09982 12.5268C7.15984 12.6508 7.24486 12.7611 7.34954 12.8508L9.69954 15.2108C9.79298 15.3035 9.9038 15.3768 10.0256 15.4266C10.1475 15.4763 10.2779 15.5016 10.4095 15.5008C10.6719 15.4997 10.9233 15.3955 11.1095 15.2108L16.1095 10.2108C16.2033 10.1178 16.2777 10.0072 16.3284 9.88537C16.3792 9.76351 16.4053 9.6328 16.4053 9.50079C16.4053 9.36878 16.3792 9.23807 16.3284 9.11622C16.2777 8.99436 16.2033 8.88376 16.1095 8.79079C15.9222 8.60454 15.6687 8.5 15.4045 8.5C15.1404 8.5 14.8869 8.60454 14.6995 8.79079Z" fill="#00AA96"/>
</svg>
