<svg width="16" height="16" viewBox="0 0 16 16" fill="none" xmlns="http://www.w3.org/2000/svg">
<path d="M15.6833 8.18115C15.6833 7.61951 15.6329 7.07947 15.5393 6.56104H8.07959V9.62846H12.3423C12.1551 10.6149 11.5934 11.4502 10.751 12.0118V14.0064H13.3216C14.8193 12.6239 15.6833 10.5933 15.6833 8.18115Z" fill="#4285F4"/>
<path d="M8.0797 15.9212C10.2183 15.9212 12.0112 15.2155 13.3217 14.0058L10.7511 12.0113C10.0454 12.4865 9.14538 12.7745 8.0797 12.7745C6.02035 12.7745 4.27063 11.3848 3.64418 9.5127H1.00879V11.5576C2.31208 14.1426 4.98348 15.9212 8.0797 15.9212Z" fill="#34A853"/>
<path d="M3.64374 9.50496C3.48533 9.02973 3.39173 8.52569 3.39173 8.00005C3.39173 7.47441 3.48533 6.97038 3.64374 6.49514V4.4502H1.00835C0.468314 5.51587 0.158691 6.71836 0.158691 8.00005C0.158691 9.28174 0.468314 10.4842 1.00835 11.5499L3.0605 9.95139L3.64374 9.50496Z" fill="#FBBC05"/>
<path d="M8.0797 3.23439C9.24619 3.23439 10.2831 3.63762 11.1111 4.41528L13.3793 2.14712C12.004 0.865423 10.2183 0.0805664 8.0797 0.0805664C4.98348 0.0805664 2.31208 1.8591 1.00879 4.45128L3.64418 6.49623C4.27063 4.6241 6.02035 3.23439 8.0797 3.23439Z" fill="#EA4335"/>
</svg>
