<svg width="16" height="16" viewBox="0 0 16 16" fill="none" xmlns="http://www.w3.org/2000/svg">
<mask id="path-1-inside-1_1964_10072" fill="white">
<path fill-rule="evenodd" clip-rule="evenodd" d="M8 13.6501C12.4183 13.6501 16 10.7847 16 7.2501C16 3.71548 12.4183 0.850098 8 0.850098C3.58172 0.850098 0 3.71548 0 7.2501C0 9.53568 1.49761 11.5414 3.75062 12.6736L3.2 15.6509L6.44235 13.5289C6.94618 13.6084 7.467 13.6501 8 13.6501Z"/>
</mask>
<path fill-rule="evenodd" clip-rule="evenodd" d="M8 13.6501C12.4183 13.6501 16 10.7847 16 7.2501C16 3.71548 12.4183 0.850098 8 0.850098C3.58172 0.850098 0 3.71548 0 7.2501C0 9.53568 1.49761 11.5414 3.75062 12.6736L3.2 15.6509L6.44235 13.5289C6.94618 13.6084 7.467 13.6501 8 13.6501Z" fill="black"/>
<path d="M3.75062 12.6736L4.73394 12.8554L4.87048 12.1172L4.19962 11.7801L3.75062 12.6736ZM3.2 15.6509L2.21667 15.4691L1.79154 17.7679L3.74763 16.4877L3.2 15.6509ZM6.44235 13.5289L6.59829 12.5411L6.21738 12.481L5.89472 12.6921L6.44235 13.5289ZM15 7.2501C15 10.0357 12.0858 12.6501 8 12.6501V14.6501C12.7508 14.6501 17 11.5337 17 7.2501H15ZM8 1.8501C12.0858 1.8501 15 4.46446 15 7.2501H17C17 2.96649 12.7508 -0.149902 8 -0.149902V1.8501ZM1 7.2501C1 4.46446 3.91424 1.8501 8 1.8501V-0.149902C3.2492 -0.149902 -1 2.96649 -1 7.2501H1ZM4.19962 11.7801C2.19263 10.7715 1 9.06481 1 7.2501H-1C-1 10.0065 0.802593 12.3113 3.30161 13.5671L4.19962 11.7801ZM4.18333 15.8328L4.73394 12.8554L2.76729 12.4917L2.21667 15.4691L4.18333 15.8328ZM5.89472 12.6921L2.65237 14.8142L3.74763 16.4877L6.98997 14.3656L5.89472 12.6921ZM8 12.6501C7.51915 12.6501 7.05046 12.6125 6.59829 12.5411L6.2864 14.5166C6.84189 14.6043 7.41486 14.6501 8 14.6501V12.6501Z" fill="black" mask="url(#path-1-inside-1_1964_10072)"/>
</svg>
