<svg width="20" height="18" viewBox="0 0 20 18" fill="none" xmlns="http://www.w3.org/2000/svg">
<path d="M7.28125 8.78125L7.89062 7.49219L8.47656 8.78125H7.28125ZM10 0.226562C11.3125 0.226562 12.5469 0.429687 13.7031 0.835938C14.8594 1.22656 15.8672 1.76562 16.7266 2.45312C17.5859 3.14063 18.2578 3.94531 18.7422 4.86719C19.2422 5.77344 19.4922 6.75 19.4922 7.79688C19.4922 8.84375 19.2422 9.82812 18.7422 10.75C18.2578 11.6719 17.5859 12.4766 16.7266 13.1641C15.8672 13.8359 14.8594 14.375 13.7031 14.7812C12.5469 15.1719 11.3125 15.3672 10 15.3672C9.6875 15.3672 9.38281 15.3594 9.08594 15.3438C8.78906 15.3125 8.5 15.2734 8.21875 15.2266L4.09375 17.8516L4.82031 14.1484C4.16406 13.8047 3.57031 13.4062 3.03906 12.9531C2.50781 12.5 2.05469 12.0078 1.67969 11.4766C1.30469 10.9297 1.01562 10.3516 0.8125 9.74219C0.609375 9.11719 0.507812 8.46875 0.507812 7.79688C0.507812 6.75 0.75 5.77344 1.23438 4.86719C1.73438 3.94531 2.41406 3.14063 3.27344 2.45312C4.13281 1.76562 5.14062 1.22656 6.29688 0.835938C7.45312 0.429687 8.6875 0.226562 10 0.226562ZM5.19531 10.0469V6.74219H6.15625C6.20312 6.74219 6.25 6.73437 6.29688 6.71875C6.34375 6.6875 6.39062 6.65625 6.4375 6.625C6.45312 6.60938 6.46875 6.59375 6.48438 6.57812C6.5 6.54687 6.50781 6.52344 6.50781 6.50781C6.52344 6.49219 6.53125 6.46875 6.53125 6.4375C6.54688 6.40625 6.55469 6.38281 6.55469 6.36719C6.55469 6.33594 6.54688 6.3125 6.53125 6.29688C6.53125 6.26562 6.52344 6.24219 6.50781 6.22656C6.49219 6.19531 6.46875 6.16406 6.4375 6.13281C6.42188 6.10156 6.39844 6.07812 6.36719 6.0625C6.33594 6.04688 6.29688 6.03125 6.25 6.01562C6.21875 6 6.1875 5.99219 6.15625 5.99219H3.32031C3.27344 5.99219 3.21875 6.00781 3.15625 6.03906C3.10938 6.05469 3.07031 6.07812 3.03906 6.10938C3.02344 6.125 3.00781 6.14063 2.99219 6.15625C2.97656 6.17187 2.96094 6.19531 2.94531 6.22656C2.94531 6.24219 2.9375 6.26562 2.92188 6.29688C2.92188 6.3125 2.92188 6.33594 2.92188 6.36719C2.92188 6.38281 2.92188 6.40625 2.92188 6.4375C2.9375 6.46875 2.94531 6.49219 2.94531 6.50781C2.96094 6.53906 2.97656 6.57031 2.99219 6.60156C3.02344 6.63281 3.05469 6.65625 3.08594 6.67188C3.13281 6.6875 3.17188 6.70313 3.20312 6.71875C3.23438 6.73437 3.27344 6.74219 3.32031 6.74219H4.30469V10.0469C4.30469 10.0938 4.3125 10.1406 4.32812 10.1875C4.34375 10.2344 4.36719 10.2812 4.39844 10.3281C4.44531 10.3594 4.49219 10.3906 4.53906 10.4219C4.58594 10.4375 4.64062 10.4453 4.70312 10.4453H4.77344C4.83594 10.4453 4.89062 10.4375 4.9375 10.4219C4.98438 10.3906 5.03125 10.3594 5.07812 10.3281C5.10938 10.2812 5.13281 10.2344 5.14844 10.1875C5.17969 10.1406 5.19531 10.0938 5.19531 10.0469ZM9.92969 10.2344L10.0234 10.0703L8.33594 6.32031C8.32031 6.28906 8.30469 6.26562 8.28906 6.25C8.28906 6.23438 8.28906 6.21094 8.28906 6.17969C8.27344 6.17969 8.25781 6.17187 8.24219 6.15625C8.24219 6.14063 8.23438 6.125 8.21875 6.10938C8.20312 6.09375 8.1875 6.07812 8.17188 6.0625C8.15625 6.04688 8.14062 6.03906 8.125 6.03906C8.09375 6.00781 8.0625 5.99219 8.03125 5.99219C8 5.97656 7.96094 5.96875 7.91406 5.96875C7.89844 5.96875 7.88281 5.96875 7.86719 5.96875C7.82031 5.96875 7.78125 5.97656 7.75 5.99219C7.71875 5.99219 7.6875 6 7.65625 6.01562C7.625 6.03125 7.59375 6.05469 7.5625 6.08594C7.54688 6.10156 7.53125 6.125 7.51562 6.15625C7.51562 6.15625 7.50781 6.16406 7.49219 6.17969C7.49219 6.17969 7.49219 6.1875 7.49219 6.20312C7.47656 6.21875 7.46094 6.23438 7.44531 6.25C7.44531 6.26562 7.44531 6.28125 7.44531 6.29688L7.42188 6.34375L5.82812 9.85938C5.8125 9.89062 5.79688 9.92188 5.78125 9.95312C5.78125 9.96875 5.78125 9.99219 5.78125 10.0234C5.78125 10.0703 5.78906 10.1094 5.80469 10.1406C5.82031 10.1719 5.83594 10.2031 5.85156 10.2344C5.86719 10.2656 5.89062 10.2969 5.92188 10.3281C5.95312 10.3594 5.98438 10.3828 6.01562 10.3984L6.10938 10.4219C6.17188 10.4531 6.23438 10.4688 6.29688 10.4688C6.35938 10.4531 6.42188 10.4297 6.48438 10.3984C6.51562 10.3828 6.53906 10.3594 6.55469 10.3281C6.58594 10.2969 6.60938 10.2656 6.625 10.2344L6.95312 9.50781H8.80469L9.13281 10.2344C9.14844 10.2656 9.16406 10.2969 9.17969 10.3281C9.21094 10.3594 9.24219 10.3828 9.27344 10.3984C9.33594 10.4453 9.39844 10.4688 9.46094 10.4688C9.53906 10.4688 9.60938 10.4531 9.67188 10.4219L9.74219 10.3984C9.77344 10.3828 9.80469 10.3672 9.83594 10.3516C9.86719 10.3203 9.89844 10.2812 9.92969 10.2344ZM13.3281 10.2344L13.4453 10.0234L13.2812 9.85938C13.2656 9.84375 13.25 9.82812 13.2344 9.8125C13.2188 9.79688 13.2031 9.78906 13.1875 9.78906C13.1562 9.75781 13.1172 9.74219 13.0703 9.74219C13.0391 9.72656 13.0078 9.71875 12.9766 9.71875H11.125V6.39062C11.125 6.34375 11.1094 6.29688 11.0781 6.25C11.0625 6.20312 11.0391 6.15625 11.0078 6.10938C10.9766 6.07812 10.9297 6.05469 10.8672 6.03906C10.8203 6.00781 10.7734 5.99219 10.7266 5.99219H10.6328C10.5859 5.99219 10.5312 6.00781 10.4688 6.03906C10.4219 6.05469 10.3828 6.07812 10.3516 6.10938C10.3203 6.15625 10.2891 6.20312 10.2578 6.25C10.2422 6.29688 10.2344 6.34375 10.2344 6.39062V10.1641L10.2812 10.2344C10.2969 10.2656 10.3125 10.2969 10.3281 10.3281C10.3594 10.3438 10.3906 10.3594 10.4219 10.375C10.4375 10.3906 10.4609 10.4062 10.4922 10.4219C10.5234 10.4219 10.5547 10.4297 10.5859 10.4453C10.6016 10.4453 10.6094 10.4453 10.6094 10.4453C10.625 10.4453 10.6328 10.4453 10.6328 10.4453H12.9766C13.0234 10.4453 13.0703 10.4375 13.1172 10.4219C13.1641 10.3906 13.2109 10.3594 13.2578 10.3281C13.2734 10.3125 13.2812 10.2969 13.2812 10.2812C13.2969 10.2656 13.3125 10.25 13.3281 10.2344ZM17.0547 10.1641C17.0703 10.1328 17.0781 10.1016 17.0781 10.0703C17.0938 10.0391 17.1016 10.0078 17.1016 9.97656C17.1016 9.94531 17.0938 9.91406 17.0781 9.88281C17.0625 9.83594 17.0469 9.78906 17.0312 9.74219L15.6719 7.91406L16.7969 6.74219C16.8281 6.69531 16.8516 6.64844 16.8672 6.60156C16.8984 6.55469 16.9141 6.50781 16.9141 6.46094C16.9141 6.42969 16.9062 6.40625 16.8906 6.39062C16.8906 6.35937 16.8906 6.32813 16.8906 6.29688C16.875 6.28125 16.8594 6.26562 16.8438 6.25C16.8281 6.21875 16.8125 6.19531 16.7969 6.17969L16.7266 6.10938C16.6641 6.04688 16.5938 6.01562 16.5156 6.01562C16.4375 6 16.3594 6.00781 16.2812 6.03906C16.2656 6.03906 16.2422 6.04688 16.2109 6.0625C16.1953 6.07812 16.1797 6.09375 16.1641 6.10938L14.5234 7.82031V6.39062C14.5234 6.34375 14.5078 6.29688 14.4766 6.25C14.4609 6.20312 14.4375 6.15625 14.4062 6.10938C14.375 6.07812 14.3281 6.05469 14.2656 6.03906C14.2188 6.00781 14.1719 5.99219 14.125 5.99219H14.0312C13.9844 5.99219 13.9297 6.00781 13.8672 6.03906C13.8203 6.05469 13.7812 6.07812 13.75 6.10938C13.7188 6.15625 13.6875 6.20312 13.6562 6.25C13.6406 6.29688 13.6328 6.34375 13.6328 6.39062V10.1406L13.6797 10.2344C13.6953 10.25 13.7031 10.2656 13.7031 10.2812C13.7188 10.2969 13.7344 10.3125 13.75 10.3281C13.7812 10.3594 13.8203 10.3906 13.8672 10.4219C13.9297 10.4375 13.9844 10.4453 14.0312 10.4453H14.125C14.1719 10.4453 14.2188 10.4375 14.2656 10.4219C14.3125 10.3906 14.3594 10.3594 14.4062 10.3281C14.4375 10.2812 14.4609 10.2344 14.4766 10.1875C14.5078 10.1406 14.5234 10.0938 14.5234 10.0469V9.10938L15.0391 8.57031L16.3047 10.2812C16.3203 10.3125 16.3359 10.3359 16.3516 10.3516C16.3828 10.3672 16.4141 10.3828 16.4453 10.3984C16.5078 10.4297 16.5781 10.4453 16.6562 10.4453C16.7344 10.4297 16.8047 10.4062 16.8672 10.375L16.9375 10.3047C16.9688 10.2891 16.9922 10.2734 17.0078 10.2578C17.0234 10.2266 17.0391 10.1953 17.0547 10.1641Z" fill="#090909"/>
</svg>
