<svg width="30" height="30" viewBox="0 0 30 30" fill="none" xmlns="http://www.w3.org/2000/svg">
<g clip-path="url(#clip0_1004_3841)">
<path d="M10.5915 13.5743C10.5105 13.5007 10.4175 13.4416 10.3165 13.3993C10.1648 13.3355 9.99752 13.3181 9.83586 13.3492C9.6742 13.3804 9.52539 13.4587 9.40821 13.5743C9.33234 13.6536 9.27287 13.7471 9.23321 13.8493C9.16939 14.0011 9.15195 14.1684 9.1831 14.33C9.21424 14.4917 9.29257 14.6405 9.40821 14.7577C9.48921 14.8313 9.58222 14.8905 9.68321 14.9327C9.83465 14.9933 10.0005 15.0081 10.1603 14.9754C10.3201 14.9426 10.4668 14.8636 10.5821 14.7483C10.6975 14.6329 10.7764 14.4863 10.8092 14.3265C10.842 14.1667 10.8272 14.0008 10.7665 13.8493C10.7269 13.7471 10.6674 13.6536 10.5915 13.5743ZM12.7415 11.4243C12.8194 11.5016 12.9118 11.5627 13.0133 11.6042C13.1148 11.6456 13.2235 11.6666 13.3332 11.666C13.4425 11.6688 13.551 11.646 13.6499 11.5993C13.7509 11.5571 13.8439 11.498 13.9249 11.4243C13.9985 11.3433 14.0577 11.2503 14.0999 11.1493C14.144 11.0496 14.1667 10.9417 14.1667 10.8327C14.1667 10.7236 14.144 10.6158 14.0999 10.516C14.0577 10.415 13.9985 10.322 13.9249 10.241C13.8474 10.1629 13.7552 10.1009 13.6537 10.0586C13.5521 10.0163 13.4432 9.99452 13.3332 9.99452C13.2232 9.99452 13.1143 10.0163 13.0127 10.0586C12.9112 10.1009 12.819 10.1629 12.7415 10.241C12.6679 10.322 12.6087 10.415 12.5665 10.516C12.5225 10.6158 12.4997 10.7236 12.4997 10.8327C12.4997 10.9417 12.5225 11.0496 12.5665 11.1493C12.6087 11.2503 12.6679 11.3433 12.7415 11.4243ZM10.5915 10.241C10.475 10.1235 10.3261 10.0433 10.1638 10.0108C10.0015 9.97822 9.83317 9.99473 9.68031 10.0582C9.52744 10.1217 9.39693 10.2292 9.30543 10.3672C9.21393 10.5051 9.16558 10.6672 9.16654 10.8327C9.16786 10.9416 9.19051 11.0492 9.23321 11.1493C9.27541 11.2503 9.3346 11.3433 9.40821 11.4243C9.48607 11.5016 9.57842 11.5627 9.67995 11.6042C9.78148 11.6456 9.8902 11.6666 9.99987 11.666C10.1092 11.6688 10.2176 11.646 10.3165 11.5993C10.4175 11.5571 10.5105 11.498 10.5915 11.4243C10.6651 11.3433 10.7243 11.2503 10.7665 11.1493C10.8106 11.0496 10.8334 10.9417 10.8334 10.8327C10.8334 10.7236 10.8106 10.6158 10.7665 10.516C10.7243 10.415 10.6651 10.322 10.5915 10.241ZM16.0749 20.241L14.9999 21.3243L13.9249 20.241C13.8472 20.1633 13.7549 20.1017 13.6534 20.0596C13.5519 20.0176 13.4431 19.9959 13.3332 19.9959C13.2233 19.9959 13.1145 20.0176 13.013 20.0596C12.9115 20.1017 12.8192 20.1633 12.7415 20.241C12.6638 20.3187 12.6022 20.411 12.5602 20.5125C12.5181 20.614 12.4965 20.7228 12.4965 20.8327C12.4965 20.9426 12.5181 21.0514 12.5602 21.1529C12.6022 21.2544 12.6638 21.3467 12.7415 21.4243L14.4082 23.091C14.4857 23.1691 14.5778 23.2311 14.6794 23.2734C14.7809 23.3157 14.8899 23.3375 14.9999 23.3375C15.1099 23.3375 15.2188 23.3157 15.3204 23.2734C15.4219 23.2311 15.5141 23.1691 15.5915 23.091L17.2582 21.4243C17.4151 21.2674 17.5033 21.0546 17.5033 20.8327C17.5033 20.6108 17.4151 20.3979 17.2582 20.241C17.1013 20.0841 16.8885 19.9959 16.6665 19.9959C16.4446 19.9959 16.2318 20.0841 16.0749 20.241ZM20.5915 10.241C20.475 10.1235 20.3261 10.0433 20.1638 10.0108C20.0015 9.97822 19.8332 9.99473 19.6803 10.0582C19.5274 10.1217 19.3969 10.2292 19.3054 10.3672C19.2139 10.5051 19.1656 10.6672 19.1665 10.8327C19.1637 10.942 19.1866 11.0504 19.2332 11.1493C19.2754 11.2503 19.3346 11.3433 19.4082 11.4243C19.4857 11.5025 19.5778 11.5645 19.6794 11.6068C19.7809 11.6491 19.8899 11.6708 19.9999 11.6708C20.1099 11.6708 20.2188 11.6491 20.3204 11.6068C20.4219 11.5645 20.5141 11.5025 20.5915 11.4243C20.6651 11.3433 20.7243 11.2503 20.7665 11.1493C20.8132 11.0504 20.836 10.942 20.8332 10.8327C20.8319 10.7238 20.8092 10.6162 20.7665 10.516C20.7243 10.415 20.6651 10.322 20.5915 10.241ZM16.6665 13.3327H13.3332C13.1122 13.3327 12.9002 13.4205 12.744 13.5768C12.5877 13.733 12.4999 13.945 12.4999 14.166C12.4999 14.387 12.5877 14.599 12.744 14.7553C12.9002 14.9116 13.1122 14.9993 13.3332 14.9993H16.6665C16.8876 14.9993 17.0995 14.9116 17.2558 14.7553C17.4121 14.599 17.4999 14.387 17.4999 14.166C17.4999 13.945 17.4121 13.733 17.2558 13.5768C17.0995 13.4205 16.8876 13.3327 16.6665 13.3327ZM21.6665 6.66602H8.33321C7.67016 6.66602 7.03428 6.92941 6.56544 7.39825C6.0966 7.86709 5.83321 8.50297 5.83321 9.16602V15.8327C5.83321 16.4957 6.0966 17.1316 6.56544 17.6005C7.03428 18.0693 7.67016 18.3327 8.33321 18.3327H21.6665C22.3296 18.3327 22.9655 18.0693 23.4343 17.6005C23.9031 17.1316 24.1665 16.4957 24.1665 15.8327V9.16602C24.1665 8.50297 23.9031 7.86709 23.4343 7.39825C22.9655 6.92941 22.3296 6.66602 21.6665 6.66602ZM22.4999 15.8327C22.4999 16.0537 22.4121 16.2657 22.2558 16.4219C22.0995 16.5782 21.8876 16.666 21.6665 16.666H8.33321C8.11219 16.666 7.90023 16.5782 7.74395 16.4219C7.58767 16.2657 7.49987 16.0537 7.49987 15.8327V9.16602C7.49987 8.945 7.58767 8.73304 7.74395 8.57676C7.90023 8.42048 8.11219 8.33268 8.33321 8.33268H21.6665C21.8876 8.33268 22.0995 8.42048 22.2558 8.57676C22.4121 8.73304 22.4999 8.945 22.4999 9.16602V15.8327ZM20.5915 13.5743C20.5123 13.4985 20.4188 13.439 20.3165 13.3993C20.2171 13.3542 20.1091 13.3309 19.9999 13.3309C19.8906 13.3309 19.7827 13.3542 19.6832 13.3993C19.5822 13.4416 19.4892 13.5007 19.4082 13.5743C19.2559 13.734 19.1696 13.9454 19.1665 14.166C19.1651 14.29 19.1913 14.4127 19.2433 14.5253C19.2953 14.6378 19.3717 14.7374 19.4671 14.8166C19.5624 14.8959 19.6742 14.9529 19.7944 14.9834C19.9145 15.014 20.04 15.0174 20.1616 14.9933C20.2832 14.9692 20.3979 14.9183 20.4974 14.8443C20.5968 14.7703 20.6785 14.675 20.7365 14.5654C20.7944 14.4558 20.8272 14.3346 20.8324 14.2108C20.8376 14.0869 20.8151 13.9634 20.7665 13.8493C20.7269 13.7471 20.6674 13.6536 20.5915 13.5743ZM16.3499 10.066C16.2489 10.1082 16.1559 10.1674 16.0749 10.241C15.9226 10.4007 15.8363 10.612 15.8332 10.8327C15.8345 10.9416 15.8572 11.0492 15.8999 11.1493C15.9421 11.2503 16.0013 11.3433 16.0749 11.4243C16.1527 11.5016 16.2451 11.5627 16.3466 11.6042C16.4481 11.6456 16.5569 11.6666 16.6665 11.666C16.7759 11.6688 16.8843 11.646 16.9832 11.5993C17.0842 11.5571 17.1772 11.498 17.2582 11.4243C17.3318 11.3433 17.391 11.2503 17.4332 11.1493C17.4799 11.0504 17.5027 10.942 17.4999 10.8327C17.4968 10.612 17.4105 10.4007 17.2582 10.241C17.141 10.1254 16.9922 10.0471 16.8306 10.0159C16.6689 9.98476 16.5016 10.0022 16.3499 10.066Z" fill="#8D8D8D"/>
</g>
<defs>
<clipPath id="clip0_1004_3841">
<rect width="20" height="20" fill="white" transform="translate(4.99988 5)"/>
</clipPath>
</defs>
</svg>
