<svg width="30" height="30" viewBox="0 0 30 30" fill="none" xmlns="http://www.w3.org/2000/svg">
<g clip-path="url(#clip0_1004_3895)">
<path fill-rule="evenodd" clip-rule="evenodd" d="M10.3166 13.3993C10.4176 13.4416 10.5106 13.5007 10.5916 13.5743C10.6675 13.6536 10.7269 13.7471 10.7666 13.8493C10.8272 14.0008 10.842 14.1667 10.8093 14.3265C10.7765 14.4863 10.6975 14.6329 10.5822 14.7483C10.4668 14.8636 10.3202 14.9426 10.1604 14.9754C10.0006 15.0081 9.83469 14.9933 9.68325 14.9327C9.58226 14.8905 9.48925 14.8313 9.40825 14.7577C9.29262 14.6405 9.21429 14.4917 9.18315 14.33C9.152 14.1684 9.16944 14.0011 9.23325 13.8493C9.27291 13.7471 9.33238 13.6536 9.40825 13.5743C9.52544 13.4587 9.67425 13.3804 9.83591 13.3492C9.99757 13.3181 10.1648 13.3355 10.3166 13.3993ZM13.0133 11.6042C12.9118 11.5627 12.8195 11.5016 12.7416 11.4243C12.668 11.3433 12.6088 11.2503 12.5666 11.1493C12.5225 11.0496 12.4997 10.9417 12.4997 10.8327C12.4997 10.7236 12.5225 10.6158 12.5666 10.516C12.6088 10.415 12.668 10.322 12.7416 10.241C12.8191 10.1629 12.9112 10.1009 13.0128 10.0586C13.1143 10.0163 13.2232 9.99452 13.3333 9.99452C13.4433 9.99452 13.5522 10.0163 13.6537 10.0586C13.7553 10.1009 13.8475 10.1629 13.9249 10.241C13.9985 10.322 14.0577 10.415 14.0999 10.516C14.144 10.6158 14.1668 10.7236 14.1668 10.8327C14.1668 10.9417 14.144 11.0496 14.0999 11.1493C14.0577 11.2503 13.9985 11.3433 13.9249 11.4243C13.8439 11.498 13.7509 11.5571 13.6499 11.5993C13.551 11.646 13.4426 11.6688 13.3333 11.666C13.2236 11.6666 13.1149 11.6456 13.0133 11.6042ZM10.1638 10.0108C10.3261 10.0433 10.475 10.1235 10.5916 10.241C10.6652 10.322 10.7244 10.415 10.7666 10.516C10.8107 10.6158 10.8334 10.7236 10.8334 10.8327C10.8334 10.9417 10.8107 11.0496 10.7666 11.1493C10.7244 11.2503 10.6652 11.3433 10.5916 11.4243C10.5106 11.498 10.4176 11.5571 10.3166 11.5993C10.2177 11.646 10.1092 11.6688 9.99992 11.666C9.89025 11.6666 9.78153 11.6456 9.68 11.6042C9.57847 11.5627 9.48612 11.5016 9.40825 11.4243C9.33464 11.3433 9.27545 11.2503 9.23325 11.1493C9.19055 11.0492 9.1679 10.9416 9.16659 10.8327C9.16562 10.6672 9.21397 10.5051 9.30548 10.3672C9.39698 10.2292 9.52748 10.1217 9.68035 10.0582C9.83322 9.99473 10.0015 9.97822 10.1638 10.0108ZM20.1638 10.0108C20.3261 10.0433 20.475 10.1235 20.5916 10.241C20.6652 10.322 20.7244 10.415 20.7666 10.516C20.8093 10.6162 20.8319 10.7238 20.8333 10.8327C20.8361 10.942 20.8132 11.0504 20.7666 11.1493C20.7244 11.2503 20.6652 11.3433 20.5916 11.4243C20.5141 11.5025 20.4219 11.5645 20.3204 11.6068C20.2189 11.6491 20.1099 11.6708 19.9999 11.6708C19.8899 11.6708 19.781 11.6491 19.6794 11.6068C19.5779 11.5645 19.4857 11.5025 19.4083 11.4243C19.3346 11.3433 19.2755 11.2503 19.2333 11.1493C19.1866 11.0504 19.1638 10.942 19.1666 10.8327C19.1656 10.6672 19.214 10.5051 19.3055 10.3672C19.397 10.2292 19.5275 10.1217 19.6804 10.0582C19.8332 9.99473 20.0015 9.97822 20.1638 10.0108ZM13.3333 13.3327H16.6666C16.8876 13.3327 17.0996 13.4205 17.2558 13.5768C17.4121 13.733 17.4999 13.945 17.4999 14.166C17.4999 14.387 17.4121 14.599 17.2558 14.7553C17.0996 14.9116 16.8876 14.9993 16.6666 14.9993H13.3333C13.1122 14.9993 12.9003 14.9116 12.744 14.7553C12.5877 14.599 12.4999 14.387 12.4999 14.166C12.4999 13.945 12.5877 13.733 12.744 13.5768C12.9003 13.4205 13.1122 13.3327 13.3333 13.3327ZM8.33325 6.66602H21.6666C22.3296 6.66602 22.9655 6.92941 23.4344 7.39825C23.9032 7.86709 24.1666 8.50297 24.1666 9.16602V15.8327C24.1666 16.4957 23.9032 17.1316 23.4344 17.6005C22.9655 18.0693 22.3296 18.3327 21.6666 18.3327H8.33325C7.67021 18.3327 7.03433 18.0693 6.56549 17.6005C6.09664 17.1316 5.83325 16.4957 5.83325 15.8327V9.16602C5.83325 8.50297 6.09664 7.86709 6.56549 7.39825C7.03433 6.92941 7.67021 6.66602 8.33325 6.66602ZM22.2558 16.4219C22.4121 16.2657 22.4999 16.0537 22.4999 15.8327V9.16602C22.4999 8.945 22.4121 8.73304 22.2558 8.57676C22.0996 8.42048 21.8876 8.33268 21.6666 8.33268H8.33325C8.11224 8.33268 7.90028 8.42048 7.744 8.57676C7.58772 8.73304 7.49992 8.945 7.49992 9.16602V15.8327C7.49992 16.0537 7.58772 16.2657 7.744 16.4219C7.90028 16.5782 8.11224 16.666 8.33325 16.666H21.6666C21.8876 16.666 22.0996 16.5782 22.2558 16.4219ZM20.3166 13.3993C20.4189 13.439 20.5123 13.4985 20.5916 13.5743C20.6675 13.6536 20.7269 13.7471 20.7666 13.8493C20.8152 13.9634 20.8377 14.0869 20.8325 14.2108C20.8273 14.3346 20.7945 14.4558 20.7365 14.5654C20.6786 14.675 20.5969 14.7703 20.4974 14.8443C20.398 14.9183 20.2833 14.9692 20.1617 14.9933C20.04 15.0174 19.9146 15.014 19.7944 14.9834C19.6743 14.9529 19.5625 14.8959 19.4671 14.8166C19.3718 14.7374 19.2953 14.6378 19.2433 14.5253C19.1913 14.4127 19.1651 14.29 19.1666 14.166C19.1697 13.9454 19.256 13.734 19.4083 13.5743C19.4893 13.5007 19.5823 13.4416 19.6833 13.3993C19.7827 13.3542 19.8907 13.3309 19.9999 13.3309C20.1091 13.3309 20.2171 13.3542 20.3166 13.3993ZM16.0749 10.241C16.1559 10.1674 16.2489 10.1082 16.3499 10.066C16.5017 10.0022 16.6689 9.98476 16.8306 10.0159C16.9923 10.0471 17.1411 10.1254 17.2583 10.241C17.4105 10.4007 17.4968 10.612 17.4999 10.8327C17.5027 10.942 17.4799 11.0504 17.4333 11.1493C17.3911 11.2503 17.3319 11.3433 17.2583 11.4243C17.1773 11.498 17.0842 11.5571 16.9833 11.5993C16.8844 11.646 16.7759 11.6688 16.6666 11.666C16.5569 11.6666 16.4482 11.6456 16.3467 11.6042C16.2451 11.5627 16.1528 11.5016 16.0749 11.4243C16.0013 11.3433 15.9421 11.2503 15.8999 11.1493C15.8572 11.0492 15.8346 10.9416 15.8333 10.8327C15.8363 10.612 15.9226 10.4007 16.0749 10.241ZM13.9249 23.0928L14.9999 22.0095L16.0749 23.0928C16.1526 23.1705 16.2448 23.2321 16.3463 23.2742C16.4479 23.3162 16.5567 23.3379 16.6666 23.3379C16.7764 23.3379 16.8852 23.3162 16.9868 23.2742C17.0883 23.2321 17.1805 23.1705 17.2582 23.0928C17.3359 23.0151 17.3976 22.9229 17.4396 22.8214C17.4817 22.7198 17.5033 22.611 17.5033 22.5011C17.5033 22.3913 17.4817 22.2825 17.4396 22.1809C17.3976 22.0794 17.3359 21.9872 17.2582 21.9095L15.5916 20.2428C15.5141 20.1647 15.4219 20.1027 15.3204 20.0604C15.2188 20.0181 15.1099 19.9963 14.9999 19.9963C14.8899 19.9963 14.781 20.0181 14.6794 20.0604C14.5779 20.1027 14.4857 20.1647 14.4082 20.2428L12.7416 21.9095C12.5846 22.0664 12.4965 22.2792 12.4965 22.5011C12.4965 22.7231 12.5846 22.9359 12.7416 23.0928C12.8985 23.2497 13.1113 23.3379 13.3332 23.3379C13.5551 23.3379 13.768 23.2497 13.9249 23.0928Z" fill="#8D8D8D"/>
</g>
<defs>
<clipPath id="clip0_1004_3895">
<rect width="20" height="20" fill="white" transform="translate(4.99988 5)"/>
</clipPath>
</defs>
</svg>
