<svg width="20" height="20" viewBox="0 0 20 20" fill="none" xmlns="http://www.w3.org/2000/svg">
<path d="M13.1423 8.95483L8.42566 4.2465C8.34819 4.16839 8.25602 4.1064 8.15447 4.06409C8.05293 4.02178 7.944 4 7.83399 4C7.72398 4 7.61506 4.02178 7.51351 4.06409C7.41196 4.1064 7.3198 4.16839 7.24233 4.2465C7.08712 4.40263 7 4.61384 7 4.834C7 5.05415 7.08712 5.26536 7.24233 5.4215L11.3673 9.58817L7.24233 13.7132C7.08712 13.8693 7 14.0805 7 14.3007C7 14.5208 7.08712 14.732 7.24233 14.8882C7.31951 14.9669 7.41154 15.0295 7.51311 15.0725C7.61467 15.1154 7.72374 15.1377 7.83399 15.1382C7.94425 15.1377 8.05332 15.1154 8.15488 15.0725C8.25644 15.0295 8.34848 14.9669 8.42566 14.8882L13.1423 10.1798C13.2269 10.1018 13.2944 10.0071 13.3406 9.90167C13.3868 9.79625 13.4106 9.68242 13.4106 9.56733C13.4106 9.45225 13.3868 9.33841 13.3406 9.23299C13.2944 9.12758 13.2269 9.03287 13.1423 8.95483Z" fill="#8D8D8D"/>
</svg>
