<svg width="30" height="30" viewBox="0 0 30 30" fill="none" xmlns="http://www.w3.org/2000/svg">
<rect width="30.0001" height="30" rx="4" fill="white"/>
<path d="M13.3333 19.9993C13.5543 19.9993 13.7663 19.9116 13.9226 19.7553C14.0789 19.599 14.1667 19.387 14.1667 19.166V14.166C14.1667 13.945 14.0789 13.733 13.9226 13.5768C13.7663 13.4205 13.5543 13.3327 13.3333 13.3327C13.1123 13.3327 12.9004 13.4205 12.7441 13.5768C12.5878 13.733 12.5 13.945 12.5 14.166V19.166C12.5 19.387 12.5878 19.599 12.7441 19.7553C12.9004 19.9116 13.1123 19.9993 13.3333 19.9993ZM21.6667 9.99935H18.3333V9.16602C18.3333 8.50297 18.0699 7.86709 17.6011 7.39825C17.1323 6.92941 16.4964 6.66602 15.8333 6.66602H14.1667C13.5036 6.66602 12.8677 6.92941 12.3989 7.39825C11.9301 7.86709 11.6667 8.50297 11.6667 9.16602V9.99935H8.33333C8.11232 9.99935 7.90036 10.0871 7.74408 10.2434C7.5878 10.3997 7.5 10.6117 7.5 10.8327C7.5 11.0537 7.5878 11.2657 7.74408 11.4219C7.90036 11.5782 8.11232 11.666 8.33333 11.666H9.16667V20.8327C9.16667 21.4957 9.43006 22.1316 9.8989 22.6004C10.3677 23.0693 11.0036 23.3327 11.6667 23.3327H18.3333C18.9964 23.3327 19.6323 23.0693 20.1011 22.6004C20.5699 22.1316 20.8333 21.4957 20.8333 20.8327V11.666H21.6667C21.8877 11.666 22.0996 11.5782 22.2559 11.4219C22.4122 11.2657 22.5 11.0537 22.5 10.8327C22.5 10.6117 22.4122 10.3997 22.2559 10.2434C22.0996 10.0871 21.8877 9.99935 21.6667 9.99935ZM13.3333 9.16602C13.3333 8.945 13.4211 8.73304 13.5774 8.57676C13.7337 8.42048 13.9457 8.33268 14.1667 8.33268H15.8333C16.0543 8.33268 16.2663 8.42048 16.4226 8.57676C16.5789 8.73304 16.6667 8.945 16.6667 9.16602V9.99935H13.3333V9.16602ZM19.1667 20.8327C19.1667 21.0537 19.0789 21.2657 18.9226 21.4219C18.7663 21.5782 18.5543 21.666 18.3333 21.666H11.6667C11.4457 21.666 11.2337 21.5782 11.0774 21.4219C10.9211 21.2657 10.8333 21.0537 10.8333 20.8327V11.666H19.1667V20.8327ZM16.6667 19.9993C16.8877 19.9993 17.0996 19.9116 17.2559 19.7553C17.4122 19.599 17.5 19.387 17.5 19.166V14.166C17.5 13.945 17.4122 13.733 17.2559 13.5768C17.0996 13.4205 16.8877 13.3327 16.6667 13.3327C16.4457 13.3327 16.2337 13.4205 16.0774 13.5768C15.9211 13.733 15.8333 13.945 15.8333 14.166V19.166C15.8333 19.387 15.9211 19.599 16.0774 19.7553C16.2337 19.9116 16.4457 19.9993 16.6667 19.9993Z" fill="#00AA96"/>
</svg>
