<svg width="30" height="30" viewBox="0 0 30 30" fill="none" xmlns="http://www.w3.org/2000/svg">
<path d="M20.3333 17.8333V9.5C20.3333 8.83696 20.0699 8.20107 19.6011 7.73223C19.1323 7.26339 18.4964 7 17.8333 7H9.5C8.83696 7 8.20107 7.26339 7.73223 7.73223C7.26339 8.20107 7 8.83696 7 9.5V17.8333C7 18.4964 7.26339 19.1323 7.73223 19.6011C8.20107 20.0699 8.83696 20.3333 9.5 20.3333H17.8333C18.4964 20.3333 19.1323 20.0699 19.6011 19.6011C20.0699 19.1323 20.3333 18.4964 20.3333 17.8333ZM8.66667 9.5C8.66667 9.27899 8.75446 9.06702 8.91074 8.91074C9.06702 8.75446 9.27899 8.66667 9.5 8.66667H17.8333C18.0543 8.66667 18.2663 8.75446 18.4226 8.91074C18.5789 9.06702 18.6667 9.27899 18.6667 9.5V13.1333L17.7667 12.225C17.3667 11.8249 16.8241 11.6001 16.2583 11.6C15.6929 11.6019 15.151 11.8264 14.75 12.225L13.9917 12.9833L13.3167 12.3083C12.86 11.8589 12.2449 11.6071 11.6042 11.6071C10.9634 11.6071 10.3484 11.8589 9.89167 12.3083L8.66667 13.5417V9.5ZM8.76667 18.2083C8.7024 18.0937 8.66802 17.9647 8.66667 17.8333V15.8917L11.0667 13.4917C11.1371 13.4209 11.2209 13.3647 11.3131 13.3263C11.4054 13.288 11.5043 13.2683 11.6042 13.2683C11.7041 13.2683 11.803 13.288 11.8952 13.3263C11.9874 13.3647 12.0712 13.4209 12.1417 13.4917L12.8333 14.1667L8.76667 18.2083ZM15.9333 13.4083C15.9745 13.3631 16.0247 13.3272 16.0807 13.3027C16.1367 13.2783 16.1972 13.266 16.2583 13.2667C16.3194 13.266 16.38 13.2783 16.436 13.3027C16.492 13.3272 16.5422 13.3631 16.5833 13.4083L18.6667 15.4833V17.8333C18.6667 18.0543 18.5789 18.2663 18.4226 18.4226C18.2663 18.5789 18.0543 18.6667 17.8333 18.6667H10.6667L15.9333 13.4083ZM22.8333 10.3333C22.6123 10.3333 22.4004 10.4211 22.2441 10.5774C22.0878 10.7337 22 10.9457 22 11.1667V19.5C22 20.163 21.7366 20.7989 21.2678 21.2678C20.7989 21.7366 20.163 22 19.5 22H11.1667C10.9457 22 10.7337 22.0878 10.5774 22.2441C10.4211 22.4004 10.3333 22.6123 10.3333 22.8333C10.3333 23.0543 10.4211 23.2663 10.5774 23.4226C10.7337 23.5789 10.9457 23.6667 11.1667 23.6667H19.5C20.6051 23.6667 21.6649 23.2277 22.4463 22.4463C23.2277 21.6649 23.6667 20.6051 23.6667 19.5V11.1667C23.6667 10.9457 23.5789 10.7337 23.4226 10.5774C23.2663 10.4211 23.0543 10.3333 22.8333 10.3333Z" fill="#8D8D8D"/>
</svg>
