<svg width="7" height="12" viewBox="0 0 7 12" fill="none" xmlns="http://www.w3.org/2000/svg">
<path d="M6.61888 5.40796L1.68063 0.699624C1.59952 0.621517 1.50302 0.559522 1.3967 0.517215C1.29038 0.474907 1.17634 0.453125 1.06116 0.453125C0.945985 0.453125 0.831946 0.474907 0.725626 0.517214C0.619306 0.559522 0.522808 0.621517 0.4417 0.699624C0.279199 0.855759 0.187988 1.06697 0.187988 1.28712C0.187988 1.50728 0.279199 1.71849 0.4417 1.87462L4.76049 6.04129L0.441698 10.1663C0.279197 10.3224 0.187986 10.5336 0.187986 10.7538C0.187986 10.9739 0.279197 11.1852 0.441698 11.3413C0.522503 11.42 0.618864 11.4827 0.725198 11.5256C0.831532 11.5685 0.945725 11.5908 1.06116 11.5913C1.1766 11.5908 1.29079 11.5685 1.39712 11.5256C1.50346 11.4827 1.59982 11.42 1.68062 11.3413L6.61888 6.63296C6.70744 6.55492 6.77812 6.46021 6.82646 6.3548C6.8748 6.24938 6.89976 6.13554 6.89976 6.02046C6.89976 5.90537 6.8748 5.79154 6.82646 5.68612C6.77812 5.5807 6.70744 5.48599 6.61888 5.40796Z" fill="#A4A4A4"/>
</svg>
