<?xml version="1.0" encoding="UTF-8"?>
<svg xmlns="http://www.w3.org/2000/svg" viewBox="0 0 48 48">
  <defs>
    <style>
      .cls-1 {
        fill: #fff;
      }

      .cls-2 {
        fill: none;
        opacity: .2;
      }
    </style>
  </defs>
  <g id="guid">
    <rect class="cls-2" width="48" height="48"/>
    <rect class="cls-2" x="4" y="4" width="40" height="40"/>
  </g>
  <g id="Layer_2" data-name="Layer 2">
    <g>
      <circle cx="24" cy="24" r="19"/>
      <g>
        <path class="cls-1" d="M17.91,28.11c-.23,0-.43-.16-.48-.38l-1.52-6.29,2.62,1c.29.11.58.16.89.16.76,0,1.47-.34,1.95-.93l2.64-3.28,2.63,3.28c.48.59,1.19.93,1.95.93.3,0,.6-.05.89-.16l2.63-1-1.52,6.29c-.05.23-.25.38-.49.38h-12.19Z"/>
        <path class="cls-1" d="M25.56,18.85h0,0M24,20.79l1.47,1.82c.76.95,1.9,1.49,3.12,1.49.48,0,.94-.08,1.39-.25l-.67,2.76h-10.61l-.67-2.76c.45.17.91.25,1.39.25,1.22,0,2.35-.54,3.12-1.49l1.47-1.82M33.52,22.5h0,0M24,16.6c-.29,0-.58.12-.78.37l-3.02,3.76c-.19.24-.48.37-.78.37-.12,0-.24-.02-.36-.07l-3.51-1.34c-.12-.05-.24-.07-.36-.07-.61,0-1.13.58-.97,1.24l1.74,7.21c.22.9,1.02,1.53,1.94,1.53h12.18c.92,0,1.73-.63,1.94-1.53l1.74-7.21c.16-.66-.36-1.24-.97-1.24-.12,0-.24.02-.36.07l-3.51,1.34c-.12.04-.24.07-.36.07-.3,0-.59-.13-.78-.37l-3.02-3.76c-.2-.25-.49-.37-.78-.37h0Z"/>
      </g>
    </g>
  </g>
</svg>