<svg width="48" height="48" viewBox="0 0 48 48" fill="none" xmlns="http://www.w3.org/2000/svg">
<g clip-path="url(#clip0_2188_3167)">
<path d="M38.5 22.5H25.5V9.5C25.5 8.67 24.83 8 24 8C23.17 8 22.5 8.67 22.5 9.5V22.5H9.5C8.67 22.5 8 23.17 8 24C8 24.83 8.67 25.5 9.5 25.5H22.5V38.5C22.5 39.33 23.17 40 24 40C24.83 40 25.5 39.33 25.5 38.5V25.5H38.5C39.33 25.5 40 24.83 40 24C40 23.17 39.33 22.5 38.5 22.5Z" fill="black"/>
</g>
<defs>
<clipPath id="clip0_2188_3167">
<rect width="48" height="48" fill="white"/>
</clipPath>
</defs>
</svg>
