<svg width="48" height="48" viewBox="0 0 48 48" fill="none" xmlns="http://www.w3.org/2000/svg">
<g clip-path="url(#clip0_2245_14263)">
<path d="M34 5H14C9.58 5 6 8.58 6 13V35C6 39.42 9.58 43 14 43H34C38.42 43 42 39.42 42 35V13C42 8.58 38.42 5 34 5ZM16 38.5C16 39.33 15.33 40 14.5 40C13.67 40 13 39.33 13 38.5V9.5C13 8.67 13.67 8 14.5 8C15.33 8 16 8.67 16 9.5V38.5ZM35 14.69C35 15.84 34.05 16.69 33 16.69C32.73 16.69 32.46 16.64 32.2 16.52L29.5 15.34L26.8 16.52C26.53 16.64 26.26 16.69 26 16.69C24.95 16.69 24 15.84 24 14.69V9C24 8.45 24.45 8 25 8H34C34.55 8 35 8.45 35 9V14.69Z" fill="black"/>
</g>
<defs>
<clipPath id="clip0_2245_14263">
<rect width="48" height="48" fill="white"/>
</clipPath>
</defs>
</svg>
