<svg width="48" height="48" viewBox="0 0 48 48" fill="none" xmlns="http://www.w3.org/2000/svg">
<g clip-path="url(#clip0_2245_14255)">
<path d="M24 5C13.51 5 5 13.51 5 24C5 27.87 6.16 31.48 8.16 34.48C11.56 39.62 17.38 43 24 43C30.62 43 36.44 39.62 39.84 34.48C41.84 31.48 43 27.87 43 24C43 13.51 34.49 5 24 5ZM37.69 32.25C34.06 28.99 29.26 27 24 27C18.74 27 13.94 28.99 10.31 32.25C8.8 29.77 8 26.94 8 24C8 15.18 15.18 8 24 8C32.82 8 40 15.18 40 24C40 26.93 39.2 29.76 37.69 32.25Z" fill="black"/>
<path d="M24 12C20.13 12 17 15.13 17 19C17 22.87 20.13 26 24 26C27.87 26 31 22.87 31 19C31 15.13 27.87 12 24 12Z" fill="black"/>
</g>
<defs>
<clipPath id="clip0_2245_14255">
<rect width="48" height="48" fill="white"/>
</clipPath>
</defs>
</svg>
