<?xml version="1.0" encoding="UTF-8"?>
<svg xmlns="http://www.w3.org/2000/svg" viewBox="0 0 48 48">
  <defs>
    <style>
      .cls-1 {
        fill: none;
        opacity: .2;
      }
    </style>
  </defs>
  <g id="guid">
    <g>
      <rect class="cls-1" width="48" height="48"/>
      <rect class="cls-1" x="4" y="4" width="40" height="40"/>
    </g>
  </g>
  <g id="Layer_2" data-name="Layer 2">
    <path d="M26.12,24l13.44-13.44c.59-.59.59-1.54,0-2.12s-1.54-.59-2.12,0l-13.44,13.44-13.44-13.44c-.59-.59-1.54-.59-2.12,0s-.59,1.54,0,2.12l13.44,13.44-13.44,13.44c-.59.59-.59,1.54,0,2.12.29.29.68.44,1.06.44s.77-.15,1.06-.44l13.44-13.44,13.44,13.44c.29.29.68.44,1.06.44s.77-.15,1.06-.44c.59-.59.59-1.54,0-2.12l-13.44-13.44Z"/>
  </g>
</svg>