<?xml version="1.0" encoding="UTF-8"?>
<svg xmlns="http://www.w3.org/2000/svg" viewBox="0 0 48 48">
  <defs>
    <style>
      .cls-1 {
        fill: none;
        opacity: .2;
      }
    </style>
  </defs>
  <g id="guid">
    <g>
      <rect class="cls-1" x="0" width="48" height="48"/>
      <rect class="cls-1" x="4" y="4" width="40" height="40"/>
    </g>
  </g>
  <g id="Layer_2" data-name="Layer 2">
    <path d="M24,7.79c.19,0,.54.05.8.4l5.15,6.78c.6.79,1.41,1.37,2.34,1.7l8.04,2.8c.41.14.56.46.62.64.06.18.12.52-.13.88l-4.86,6.99c-.56.81-.87,1.76-.89,2.75l-.18,8.51c-.01.61-.53.98-.99.98-.1,0-.19-.01-.3-.05l-8.15-2.46c-.47-.14-.95-.21-1.44-.21s-.98.07-1.44.21l-8.15,2.46c-.1.03-.2.05-.3.05-.47,0-.98-.38-.99-.98l-.18-8.51c-.02-.99-.33-1.94-.89-2.75l-4.86-6.99c-.25-.35-.19-.7-.13-.88.06-.18.21-.49.62-.64l8.04-2.8c.93-.32,1.74-.91,2.34-1.7l5.15-6.78c.26-.34.61-.4.8-.4M24,4.79c-1.19,0-2.39.53-3.19,1.58l-5.15,6.78c-.24.31-.56.55-.94.68l-8.04,2.8c-2.5.87-3.48,3.89-1.97,6.06l4.86,6.99c.22.32.35.71.36,1.1l.18,8.51c.05,2.24,1.89,3.92,3.99,3.92.38,0,.77-.06,1.16-.17l8.15-2.46c.19-.06.38-.09.58-.09s.39.03.58.09l8.15,2.46c.39.12.78.17,1.16.17,2.1,0,3.95-1.68,3.99-3.92l.18-8.51c0-.39.13-.78.36-1.1l4.86-6.99c1.51-2.17.53-5.19-1.97-6.06l-8.04-2.8c-.37-.13-.7-.37-.94-.68l-5.15-6.78c-.8-1.05-1.99-1.58-3.19-1.58h0Z"/>
  </g>
</svg>