<?xml version="1.0" encoding="UTF-8"?>
<svg xmlns="http://www.w3.org/2000/svg" viewBox="0 0 48 48">
  <defs>
    <style>
      .cls-1 {
        fill: none;
        opacity: .2;
      }
    </style>
  </defs>
  <g id="guid">
    <rect class="cls-1" width="48" height="48"/>
    <rect class="cls-1" x="4" y="4" width="40" height="40"/>
  </g>
  <g id="Layer_2" data-name="Layer 2">
    <g>
      <path d="M34,5H14c-4.42,0-8,3.58-8,8v22c0,4.42,3.58,8,8,8h20c4.42,0,8-3.58,8-8V13c0-4.42-3.58-8-8-8ZM39,35c0,2.76-2.24,5-5,5H14c-2.76,0-5-2.24-5-5V13c0-2.76,2.24-5,5-5h20c2.76,0,5,2.24,5,5v22Z"/>
      <path d="M32,14.5H16c-.83,0-1.5.67-1.5,1.5s.67,1.5,1.5,1.5h16c.83,0,1.5-.67,1.5-1.5s-.67-1.5-1.5-1.5Z"/>
      <path d="M32,22.5H16c-.83,0-1.5.67-1.5,1.5s.67,1.5,1.5,1.5h16c.83,0,1.5-.67,1.5-1.5s-.67-1.5-1.5-1.5Z"/>
      <path d="M32,30.5H16c-.83,0-1.5.67-1.5,1.5s.67,1.5,1.5,1.5h16c.83,0,1.5-.67,1.5-1.5s-.67-1.5-1.5-1.5Z"/>
    </g>
  </g>
</svg>