<?xml version="1.0" encoding="UTF-8"?>
<svg xmlns="http://www.w3.org/2000/svg" viewBox="0 0 48 48">
  <defs>
    <style>
      .cls-1 {
        fill: none;
        opacity: .2;
      }
    </style>
  </defs>
  <g id="guid">
    <rect class="cls-1" width="48" height="48"/>
    <rect class="cls-1" x="4" y="4" width="40" height="40"/>
  </g>
  <g id="Layer_2" data-name="Layer 2">
    <g>
      <path d="M26.03,5.1c-.63-.37-1.33-.56-2.03-.56s-1.4.19-2.03.56c-4.51,2.67-14.97,10.13-14.97,21.9,0,9.39,7.61,16.97,17,16.98,9.39,0,17-7.59,17-16.98,0-11.77-10.46-19.23-14.97-21.9ZM24,40.98c-7.72,0-14-6.27-14-13.98,0-10.22,9.44-16.91,13.5-19.31.15-.09.33-.14.5-.14s.35.05.5.14c4.06,2.4,13.5,9.09,13.5,19.31,0,7.7-6.28,13.97-14,13.98Z"/>
      <path d="M24,34.48c-4.14,0-7.5-3.36-7.5-7.48,0-.83-.67-1.5-1.5-1.5s-1.5.67-1.5,1.5c0,5.77,4.71,10.47,10.5,10.48h0c.83,0,1.5-.67,1.5-1.5s-.67-1.5-1.5-1.5Z"/>
    </g>
  </g>
</svg>