<?xml version="1.0" encoding="UTF-8"?>
<svg xmlns="http://www.w3.org/2000/svg" viewBox="0 0 48 48">
  <defs>
    <style>
      .cls-1 {
        fill: none;
        opacity: .2;
      }
    </style>
  </defs>
  <g id="guid">
    <rect class="cls-1" width="48" height="48"/>
    <rect class="cls-1" x="4" y="4" width="40" height="40"/>
  </g>
  <g id="Layer_2" data-name="Layer 2">
    <g>
      <path d="M33.43,26.95c2.11-1.52,3.11-4.26,2.27-6.87-.85-2.61-3.27-4.23-5.87-4.22h0c-.8-2.48-3.09-4.28-5.83-4.28s-5.03,1.8-5.83,4.28h0c-2.6,0-5.02,1.62-5.87,4.22-.85,2.61.16,5.34,2.27,6.87-.81,2.47-.01,5.28,2.2,6.89,1.08.79,2.33,1.16,3.57,1.16s2.59-.41,3.66-1.2c1.07.78,2.36,1.2,3.66,1.2s2.49-.38,3.57-1.16c2.22-1.61,3.01-4.42,2.2-6.89ZM29.47,31.41c-.53.39-1.16.59-1.81.59s-1.34-.22-1.89-.62l-1.42-1.04c-.21-.15-.5-.15-.71,0l-1.42,1.04c-.55.4-1.22.62-1.89.62s-1.28-.2-1.81-.59c-1.1-.8-1.55-2.21-1.11-3.53l.55-1.67c.08-.25,0-.52-.22-.67l-1.42-1.03c-1.12-.81-1.59-2.22-1.17-3.51.42-1.29,1.62-2.15,3.01-2.15h1.76c.26,0,.49-.16.57-.41l.54-1.67c.42-1.31,1.62-2.2,2.97-2.2s2.55.88,2.97,2.2l.55,1.67c.08.25.31.41.57.41h1.75c1.38,0,2.58.86,3,2.15.42,1.29-.05,2.7-1.17,3.51l-1.42,1.03c-.21.15-.3.43-.22.67l.55,1.67c.43,1.31-.02,2.73-1.11,3.53Z"/>
      <path d="M24,19.22c-2.57,0-4.66,2.09-4.66,4.66s2.09,4.66,4.66,4.66,4.66-2.09,4.66-4.66-2.09-4.66-4.66-4.66ZM24,25.55c-.92,0-1.66-.75-1.66-1.66s.75-1.66,1.66-1.66,1.66.75,1.66,1.66-.75,1.66-1.66,1.66Z"/>
      <path d="M5.5,20c.83,0,1.5-.67,1.5-1.5v-5c0-3.58,2.92-6.5,6.5-6.5h5c.83,0,1.5-.67,1.5-1.5s-.67-1.5-1.5-1.5h-5c-5.24,0-9.5,4.26-9.5,9.5v5c0,.83.67,1.5,1.5,1.5Z"/>
      <path d="M34.5,4h-5c-.83,0-1.5.67-1.5,1.5s.67,1.5,1.5,1.5h5c3.58,0,6.5,2.92,6.5,6.5v5c0,.83.67,1.5,1.5,1.5s1.5-.67,1.5-1.5v-5c0-5.24-4.26-9.5-9.5-9.5Z"/>
      <path d="M18.5,41h-5c-3.58,0-6.5-2.92-6.5-6.5v-5c0-.83-.67-1.5-1.5-1.5s-1.5.67-1.5,1.5v5c0,5.24,4.26,9.5,9.5,9.5h5c.83,0,1.5-.67,1.5-1.5s-.67-1.5-1.5-1.5Z"/>
      <path d="M42.5,28c-.83,0-1.5.67-1.5,1.5v5c0,3.58-2.92,6.5-6.5,6.5h-5c-.83,0-1.5.67-1.5,1.5s.67,1.5,1.5,1.5h5c5.24,0,9.5-4.26,9.5-9.5v-5c0-.83-.67-1.5-1.5-1.5Z"/>
    </g>
  </g>
</svg>