<?xml version="1.0" encoding="UTF-8"?>
<svg xmlns="http://www.w3.org/2000/svg" viewBox="0 0 48 48">
  <defs>
    <style>
      .cls-1 {
        fill: none;
        opacity: .2;
      }
    </style>
  </defs>
  <g id="guid">
    <rect class="cls-1" width="48" height="48"/>
    <rect class="cls-1" x="4" y="4" width="40" height="40"/>
  </g>
  <g id="Layer_2" data-name="Layer 2">
    <g>
      <path d="M34,15H14c-4.42,0-8,3.58-8,8v12c0,4.42,3.58,8,8,8h20c4.42,0,8-3.58,8-8v-12c0-4.42-3.58-8-8-8ZM39,35c0,2.76-2.24,5-5,5H14c-2.76,0-5-2.24-5-5v-12c0-2.76,2.24-5,5-5h20c2.76,0,5,2.24,5,5v12Z"/>
      <circle cx="15" cy="25.5" r="1.5"/>
      <circle cx="33" cy="25.5" r="1.5"/>
      <circle cx="27" cy="25.5" r="1.5"/>
      <circle cx="21" cy="25.5" r="1.5"/>
      <path d="M19,13.5c.38,0,.77-.15,1.06-.44l4.24-4.24,4.24,4.24c.59.59,1.54.59,2.12,0s.59-1.54,0-2.12l-4.79-4.79c-.87-.87-2.29-.87-3.15,0l-4.79,4.79c-.59.59-.59,1.54,0,2.12.29.29.68.44,1.06.44Z"/>
      <path d="M30.5,31h-13c-.83,0-1.5.67-1.5,1.5s.67,1.5,1.5,1.5h13c.83,0,1.5-.67,1.5-1.5s-.67-1.5-1.5-1.5Z"/>
    </g>
  </g>
</svg>