<?xml version="1.0" encoding="UTF-8"?>
<svg xmlns="http://www.w3.org/2000/svg" viewBox="0 0 48 48">
  <defs>
    <style>
      .cls-1 {
        fill: none;
        opacity: .2;
      }
    </style>
  </defs>
  <g id="guid">
    <rect class="cls-1" width="48" height="48"/>
    <rect class="cls-1" x="4" y="4" width="40" height="40"/>
  </g>
  <g id="Layer_2" data-name="Layer 2">
    <g>
      <path d="M35.36,6H12.56c-4.2,0-7.6,3.58-7.6,8v20c0,1.09.21,2.13.58,3.08.51,1.29,1.34,2.41,2.37,3.25.31.25.63.48.97.67,1.1.64,2.35,1,3.68,1h22.8c1.34,0,2.58-.36,3.68-1,.07-.04.14-.08.21-.13.84-.52,1.57-1.21,2.16-2.02.11-.15.21-.3.3-.46.24-.37.45-.77.61-1.19.15-.35.27-.7.36-1.07.06-.2.1-.41.14-.62.1-.47.14-.96.14-1.46V14c0-4.42-3.4-8-7.6-8ZM39.33,36.73c-.07.14-.16.27-.26.4-.43.55-.96,1.02-1.57,1.34-.64.34-1.37.53-2.14.53H12.56c-2.62,0-4.75-2.24-4.75-5v-5.15l8.24-5.25c.59-.38,1.5-.6,2.45-.6s1.86.22,2.45.6l18.9,12.03c-.13.39-.31.76-.52,1.1ZM22.56,21.07c-1.12-.71-2.59-1.07-4.06-1.07s-2.94.36-4.06,1.07l-6.63,4.22v-11.29c0-2.76,2.13-5,4.75-5h22.8c2.62,0,4.75,2.24,4.75,5v18.24l-17.55-11.17Z"/>
      <path d="M31.96,11c-3.31,0-6,2.69-6,6s2.69,6,6,6,6-2.69,6-6-2.69-6-6-6ZM31.96,20c-1.65,0-3-1.35-3-3s1.35-3,3-3,3,1.35,3,3-1.35,3-3,3Z"/>
    </g>
  </g>
</svg>