<svg width="48" height="48" viewBox="0 0 48 48" fill="none" xmlns="http://www.w3.org/2000/svg">
<g clip-path="url(#clip0_2188_3194)">
<path d="M33 7C35.76 7 38 9.24 38 12V39.99C38 40.68 37.4 41 37 41C36.84 41 36.69 40.96 36.54 40.88L26.35 35.48C25.63 35.1 24.82 34.9 24.01 34.9C23.2 34.9 22.39 35.1 21.67 35.48L11.48 40.88C11.33 40.96 11.17 41 11.02 41C10.62 41 10.02 40.68 10.02 39.99V12C10.02 9.24 12.26 7 15.02 7H33.02M33 4H15C10.58 4 7 7.58 7 12V39.99C7 42.31 8.91 44 11 44C11.62 44 12.26 43.85 12.87 43.53L23.06 38.13C23.35 37.98 23.67 37.9 24 37.9C24.33 37.9 24.64 37.98 24.94 38.13L35.13 43.53C35.74 43.85 36.38 44 37 44C39.1 44 41 42.32 41 39.99V12C41 7.58 37.42 4 33 4Z" fill="black"/>
</g>
<defs>
<clipPath id="clip0_2188_3194">
<rect width="48" height="48" fill="white"/>
</clipPath>
</defs>
</svg>
