<?xml version="1.0" encoding="UTF-8"?>
<svg id="Layer_2" data-name="Layer 2" xmlns="http://www.w3.org/2000/svg" viewBox="0 0 40 48">
  <path d="M0,0v42.35c0,.31.04.6.09.88.01.07.03.13.04.2.06.27.14.54.25.79.01.03.03.05.04.08.1.23.23.45.37.65.03.05.07.1.1.15.16.22.33.42.52.6.03.03.06.06.1.09.17.16.36.31.55.44.05.03.09.06.14.09.22.14.45.26.7.36.05.02.1.04.15.06.22.08.44.15.67.2.05.01.09.02.14.03.26.05.52.07.79.08.02,0,.05,0,.07,0,.07,0,.15,0,.23-.01.08,0,.16,0,.24-.01.12-.01.24-.03.35-.05.08-.01.15-.02.23-.04.13-.03.26-.07.39-.11.06-.02.13-.04.19-.06.19-.07.38-.16.57-.26l11.99-6.35c.34-.18.72-.27,1.1-.27s.76.09,1.1.27l11.99,6.35c.19.1.38.18.57.26.06.02.13.04.19.06.13.04.26.08.38.11.08.02.15.03.23.04.12.02.23.04.35.05.08,0,.16.01.24.01.08,0,.15.01.23.01.02,0,.05,0,.07,0,.27,0,.53-.03.79-.08.05,0,.09-.02.14-.03.23-.05.45-.12.67-.2.05-.02.1-.04.15-.06.24-.1.47-.22.69-.36.05-.03.09-.06.14-.09.19-.13.38-.28.55-.44.03-.03.07-.06.1-.09.19-.18.36-.39.52-.6.04-.05.07-.1.1-.15.14-.21.26-.42.37-.65.01-.03.03-.05.04-.08.11-.25.19-.52.25-.79.02-.07.03-.13.04-.2.05-.28.09-.58.09-.88V0H0Z"/>
</svg>