<?xml version="1.0" encoding="UTF-8"?>
<svg xmlns="http://www.w3.org/2000/svg" viewBox="0 0 48 48">
  <defs>
    <style>
      .cls-1 {
        fill: none;
        opacity: .2;
      }
    </style>
  </defs>
  <g id="guid">
    <g>
      <rect class="cls-1" x="0" width="48" height="48"/>
      <rect class="cls-1" x="4" y="4" width="40" height="40"/>
    </g>
  </g>
  <g id="Layer_2" data-name="Layer 2">
    <path d="M41.31,16.63l-8.04-2.8c-.37-.13-.7-.37-.94-.68l-5.15-6.78c-.4-.53-.9-.92-1.45-1.19-.55-.26-1.14-.4-1.74-.4s-1.19.13-1.74.4c-.55.26-1.05.66-1.45,1.19l-5.15,6.78c-.24.31-.56.55-.94.68l-8.04,2.8c-2.5.87-3.48,3.89-1.97,6.06l4.86,6.99c.22.32.35.71.36,1.1l.18,8.51c0,.25.04.5.09.74,0,.04.02.08.02.12.05.22.13.44.22.65.02.04.04.08.05.12.1.21.21.41.34.59,0,.01.02.03.03.04.13.18.27.34.43.49.02.02.05.05.07.07.16.15.33.29.51.41.04.02.07.05.11.07.19.12.38.22.59.31.03.01.05.02.08.03.2.08.41.14.62.19.03,0,.05.01.08.02.22.04.45.06.68.07.02,0,.05,0,.07,0,.03,0,.06,0,.09,0,.12,0,.24-.01.37-.03.06,0,.11-.01.17-.02.18-.03.36-.07.54-.12l8.15-2.46c.19-.06.38-.09.58-.09s.39.03.58.09l8.15,2.46c.18.05.36.09.54.12.06,0,.11.01.17.02.12.01.25.02.37.03.03,0,.06,0,.09,0,.02,0,.05,0,.07,0,.23,0,.46-.02.68-.07.03,0,.05-.01.08-.02.21-.05.42-.11.62-.19.03,0,.05-.02.08-.03.21-.09.4-.19.59-.31.04-.02.07-.05.11-.07.18-.12.36-.26.52-.41.02-.02.05-.05.07-.07.16-.15.3-.32.43-.5,0-.01.02-.02.03-.04.13-.18.24-.38.34-.59.02-.04.04-.08.05-.12.09-.21.16-.42.22-.65,0-.04.02-.08.02-.12.05-.24.08-.48.09-.74l.18-8.51c0-.39.13-.78.36-1.1l4.86-6.99c1.51-2.17.53-5.19-1.97-6.06Z"/>
  </g>
</svg>