<svg width="48" height="48" viewBox="0 0 48 48" fill="none" xmlns="http://www.w3.org/2000/svg">
<g clip-path="url(#clip0_2245_14249)">
<path d="M34 5H14C9.58 5 6 8.58 6 13V35C6 39.42 9.58 43 14 43H34C38.42 43 42 39.42 42 35V13C42 8.58 38.42 5 34 5ZM32 33.5H16C15.17 33.5 14.5 32.83 14.5 32C14.5 31.17 15.17 30.5 16 30.5H32C32.83 30.5 33.5 31.17 33.5 32C33.5 32.83 32.83 33.5 32 33.5ZM32 25.5H16C15.17 25.5 14.5 24.83 14.5 24C14.5 23.17 15.17 22.5 16 22.5H32C32.83 22.5 33.5 23.17 33.5 24C33.5 24.83 32.83 25.5 32 25.5ZM32 17.5H16C15.17 17.5 14.5 16.83 14.5 16C14.5 15.17 15.17 14.5 16 14.5H32C32.83 14.5 33.5 15.17 33.5 16C33.5 16.83 32.83 17.5 32 17.5Z" fill="black"/>
</g>
<defs>
<clipPath id="clip0_2245_14249">
<rect width="48" height="48" fill="white"/>
</clipPath>
</defs>
</svg>
