<?xml version="1.0" encoding="UTF-8"?>
<svg xmlns="http://www.w3.org/2000/svg" viewBox="0 0 48 48">
  <defs>
    <style>
      .cls-1 {
        fill: none;
        opacity: .2;
      }
    </style>
  </defs>
  <g id="guid">
    <rect class="cls-1" width="48" height="48"/>
    <rect class="cls-1" x="4" y="4" width="40" height="40"/>
  </g>
  <g id="Layer_2" data-name="Layer 2">
    <g>
      <path d="M37.28,30.5h-3.78v-3.78c0-.83-.67-1.5-1.5-1.5s-1.5.67-1.5,1.5v3.78h-3.78c-.83,0-1.5.67-1.5,1.5s.67,1.5,1.5,1.5h3.78v3.78c0,.83.67,1.5,1.5,1.5s1.5-.67,1.5-1.5v-3.78h3.78c.83,0,1.5-.67,1.5-1.5s-.67-1.5-1.5-1.5Z"/>
      <path d="M13.72,16.19h15.56c.83,0,1.5-.67,1.5-1.5s-.67-1.5-1.5-1.5h-15.56c-.83,0-1.5.67-1.5,1.5s.67,1.5,1.5,1.5Z"/>
      <path d="M13.72,23.97h6.28c.83,0,1.5-.67,1.5-1.5s-.67-1.5-1.5-1.5h-6.28c-.83,0-1.5.67-1.5,1.5s.67,1.5,1.5,1.5Z"/>
      <path d="M17,28.75h-3.28c-.83,0-1.5.67-1.5,1.5s.67,1.5,1.5,1.5h3.28c.83,0,1.5-.67,1.5-1.5s-.67-1.5-1.5-1.5Z"/>
      <path d="M39,22.25v-10.25c0-4.42-3.58-8-8-8H12c-4.42,0-8,3.58-8,8v20.94c0,4.42,3.58,8,8,8h11.99c2.12,1.9,4.93,3.06,8.01,3.06,6.63,0,12-5.37,12-12,0-4.02-1.97-7.57-5-9.75ZM12,37.94c-2.76,0-5-2.24-5-5V12c0-2.76,2.24-5,5-5h19c2.76,0,5,2.24,5,5v8.69c-1.25-.45-2.6-.69-4-.69-6.63,0-12,5.37-12,12,0,2.16.57,4.19,1.57,5.94h-9.57ZM32,41c-.34,0-.67-.02-1-.06h-.01c-2.28-.25-4.3-1.36-5.74-3-1.4-1.59-2.25-3.67-2.25-5.94,0-4.96,4.04-9,9-9,1.43,0,2.79.34,4,.94,1.17.58,2.19,1.41,3,2.42,1.25,1.54,2,3.51,2,5.64,0,4.96-4.04,9-9,9Z"/>
    </g>
  </g>
</svg>