<?xml version="1.0" encoding="UTF-8"?>
<svg xmlns="http://www.w3.org/2000/svg" viewBox="0 0 48 48">
  <defs>
    <style>
      .cls-1 {
        fill: none;
        opacity: .2;
      }
    </style>
  </defs>
  <g id="guid">
    <rect class="cls-1" x="0" width="48" height="48"/>
    <rect class="cls-1" x="4" y="4" width="40" height="40"/>
  </g>
  <g id="Layer_2" data-name="Layer 2">
    <g>
      <path d="M36,10h-1.47v-1c0-2.21-1.79-4-4-4h-13.05c-2.21,0-4,1.79-4,4v1h-1.47c-4.42,0-8,3.58-8,8v17c0,4.42,3.58,8,8,8h24c4.42,0,8-3.58,8-8v-17c0-4.42-3.58-8-8-8ZM16.47,9c0-.55.45-1,1-1h13.05c.55,0,1,.45,1,1v1h-15.05v-1ZM40.95,35c0,2.73-2.22,4.95-4.95,4.95H12c-2.73,0-4.95-2.22-4.95-4.95v-17c0-2.73,2.22-4.95,4.95-4.95h24c2.73,0,4.95,2.22,4.95,4.95v17Z"/>
      <path d="M24,17.37c-5.04,0-9.13,4.09-9.13,9.13s4.09,9.13,9.13,9.13,9.13-4.09,9.13-9.13-4.09-9.13-9.13-9.13ZM24,32.63c-3.38,0-6.13-2.75-6.13-6.13s2.75-6.13,6.13-6.13,6.13,2.75,6.13,6.13-2.75,6.13-6.13,6.13Z"/>
      <circle cx="36" cy="18" r="2"/>
    </g>
  </g>
</svg>