<?xml version="1.0" encoding="UTF-8"?>
<svg xmlns="http://www.w3.org/2000/svg" viewBox="0 0 48 48">
  <defs>
    <style>
      .cls-1 {
        fill: none;
        opacity: .2;
      }
    </style>
  </defs>
  <g id="guid">
    <rect class="cls-1" width="48" height="48"/>
    <rect class="cls-1" x="4" y="4" width="40" height="40"/>
  </g>
  <g id="Layer_2" data-name="Layer 2">
    <g>
      <path d="M24,5C13.51,5,5,13.51,5,24c0,3.87,1.16,7.48,3.16,10.48,3.4,5.14,9.22,8.52,15.84,8.52s12.44-3.38,15.84-8.52c2-3,3.16-6.61,3.16-10.48,0-10.49-8.51-19-19-19ZM22.45,39.92c-.09,0-.17-.01-.26-.02-.49-.05-.97-.13-1.44-.23-.09-.02-.19-.04-.28-.06-.48-.11-.95-.23-1.42-.38-.05-.02-.11-.04-.16-.06-.44-.15-.88-.32-1.3-.51-.06-.03-.13-.05-.19-.08-.44-.2-.86-.42-1.28-.66-.09-.05-.18-.1-.27-.16-.41-.24-.8-.5-1.19-.78-.08-.05-.15-.11-.22-.17-.37-.28-.73-.57-1.08-.88-.03-.03-.07-.06-.1-.09-.36-.33-.7-.68-1.04-1.04-.04-.05-.08-.09-.12-.14,3.22-2.99,7.45-4.67,11.9-4.67s8.68,1.68,11.91,4.67c-.04.04-.07.08-.11.12-.34.37-.69.73-1.06,1.07-.02.02-.04.03-.06.05-.36.33-.74.63-1.13.92-.06.05-.12.1-.19.14-.39.28-.8.55-1.21.79-.08.05-.17.1-.25.14-.42.24-.85.46-1.3.66-.06.03-.12.05-.18.07-.43.19-.88.36-1.33.51-.05.02-.1.04-.15.05-.47.15-.94.28-1.42.39-.09.02-.18.04-.28.06-.48.1-.96.18-1.45.23-.09,0-.17.02-.26.02-.51.05-1.03.08-1.55.08s-1.04-.03-1.55-.08ZM37.69,32.25c-3.63-3.26-8.43-5.25-13.69-5.25s-10.06,1.99-13.69,5.25c-1.51-2.48-2.31-5.31-2.31-8.25,0-8.82,7.18-16,16-16s16,7.18,16,16c0,2.93-.8,5.76-2.31,8.25Z"/>
      <path d="M24,12c-3.87,0-7,3.13-7,7s3.13,7,7,7,7-3.13,7-7-3.13-7-7-7ZM24,23c-2.21,0-4-1.79-4-4s1.79-4,4-4,4,1.79,4,4-1.79,4-4,4Z"/>
    </g>
  </g>
</svg>