<?xml version="1.0" encoding="UTF-8"?>
<svg xmlns="http://www.w3.org/2000/svg" viewBox="0 0 48 48">
  <defs>
    <style>
      .cls-1 {
        fill: none;
        opacity: .2;
      }
    </style>
  </defs>
  <g id="guid">
    <rect class="cls-1" width="48" height="48"/>
    <rect class="cls-1" x="4" y="4" width="40" height="40"/>
  </g>
  <g id="Layer_2" data-name="Layer 2">
    <g>
      <path d="M43.5,18.65c-1.41-4.34-5.45-7.05-9.78-7.04h0c-1.33-4.13-5.15-7.13-9.72-7.13s-8.39,3.01-9.72,7.13h0c-4.33-.01-8.37,2.69-9.78,7.04-1.41,4.34.27,8.91,3.78,11.44-1.35,4.12-.02,8.8,3.67,11.48,1.8,1.31,3.89,1.94,5.95,1.94s4.31-.69,6.1-2c1.79,1.31,3.94,2,6.1,2s4.15-.63,5.95-1.94c3.69-2.68,5.02-7.36,3.67-11.48,3.51-2.54,5.19-7.1,3.78-11.44ZM37.97,27.66l-1.19.86c-.35.25-.5.71-.36,1.12l.46,1.39c.99,3.01-.05,6.28-2.58,8.12-1.68,1.22-3.78,1.66-5.89,1.17-1.01-.23-1.94-.72-2.78-1.33l-1.03-.75c-.35-.26-.83-.26-1.18,0l-1.03.75c-.83.61-1.77,1.09-2.78,1.33-2.11.49-4.21.06-5.89-1.17-2.53-1.84-3.57-5.1-2.58-8.12l.46-1.39c.14-.41-.01-.87-.36-1.12l-1.19-.86c-2.57-1.86-3.65-5.11-2.68-8.08.96-2.97,3.74-4.96,6.92-4.96h1.46c.44,0,.82-.27.96-.69l.45-1.39c.97-3.02,3.73-5.05,6.86-5.05s5.89,2.03,6.86,5.05l.47,1.4c.14.41.52.68.95.68h1.47c3.16,0,5.93,1.99,6.9,4.96.97,2.98-.11,6.23-2.68,8.08Z"/>
      <path d="M24,17.22c-4.29,0-7.77,3.48-7.77,7.77s3.48,7.77,7.77,7.77,7.77-3.48,7.77-7.77-3.48-7.77-7.77-7.77ZM24,29.76c-2.63,0-4.77-2.14-4.77-4.77s2.14-4.77,4.77-4.77,4.77,2.14,4.77,4.77-2.14,4.77-4.77,4.77Z"/>
    </g>
  </g>
</svg>