<svg width="48" height="48" viewBox="0 0 48 48" fill="none" xmlns="http://www.w3.org/2000/svg">
<g clip-path="url(#clip0_2245_14243)">
<path d="M43.4996 18.65C42.0896 14.31 38.0496 11.6 33.7196 11.61C32.3896 7.47998 28.5696 4.47998 23.9996 4.47998C19.4296 4.47998 15.6096 7.48998 14.2796 11.61C9.94964 11.6 5.90964 14.3 4.49964 18.65C3.08964 22.99 4.76964 27.56 8.27964 30.09C6.92964 34.21 8.25964 38.89 11.9496 41.57C13.7496 42.88 15.8396 43.51 17.8996 43.51C19.9596 43.51 22.2096 42.82 23.9996 41.51C25.7896 42.82 27.9396 43.51 30.0996 43.51C32.2596 43.51 34.2496 42.88 36.0496 41.57C39.7396 38.89 41.0696 34.21 39.7196 30.09C43.2296 27.55 44.9096 22.99 43.4996 18.65ZM23.9996 29.76C21.3696 29.76 19.2296 27.62 19.2296 24.99C19.2296 22.36 21.3696 20.22 23.9996 20.22C26.6296 20.22 28.7696 22.36 28.7696 24.99C28.7696 27.62 26.6296 29.76 23.9996 29.76Z" fill="black"/>
</g>
<defs>
<clipPath id="clip0_2245_14243">
<rect width="48" height="48" fill="white"/>
</clipPath>
</defs>
</svg>
