<?xml version="1.0" encoding="UTF-8"?>
<svg xmlns="http://www.w3.org/2000/svg" viewBox="0 0 48 48">
  <defs>
    <style>
      .cls-1 {
        fill: none;
        opacity: .2;
      }
    </style>
  </defs>
  <g id="guid">
    <g>
      <rect class="cls-1" width="48" height="48"/>
      <rect class="cls-1" x="4" y="4" width="40" height="40"/>
    </g>
  </g>
  <g id="Layer_2" data-name="Layer 2">
    <g>
      <path d="M35,16h-3.5c-.83,0-1.5.67-1.5,1.5s.67,1.5,1.5,1.5h3.5c2.76,0,5,2.24,5,5v12c0,2.76-2.24,5-5,5H13c-2.76,0-5-2.24-5-5v-12c0-2.76,2.24-5,5-5h3.5c.83,0,1.5-.67,1.5-1.5s-.67-1.5-1.5-1.5h-3.5c-4.42,0-8,3.58-8,8v12c0,4.42,3.58,8,8,8h22c4.42,0,8-3.58,8-8v-12c0-4.42-3.58-8-8-8Z"/>
      <path d="M18.02,13.24l4.48-4.16v17.92c0,.83.67,1.5,1.5,1.5s1.5-.67,1.5-1.5V9.08l4.48,4.16c.29.27.66.4,1.02.4.4,0,.8-.16,1.1-.48.56-.61.53-1.56-.08-2.12l-6.32-5.87c-.95-.89-2.45-.89-3.4,0l-6.32,5.87c-.61.56-.64,1.51-.08,2.12.56.61,1.51.64,2.12.08Z"/>
    </g>
  </g>
</svg>