<svg width="40" height="40" viewBox="0 0 40 40" fill="none" xmlns="http://www.w3.org/2000/svg">
<g clip-path="url(#clip0_2199_34621)">
<path d="M20 40C31.0457 40 40 31.0457 40 20C40 8.95431 31.0457 0 20 0C8.95431 0 0 8.95431 0 20C0 31.0457 8.95431 40 20 40Z" fill="black"/>
<path d="M13.5896 24.3273C13.3475 24.3273 13.137 24.1589 13.0844 23.9273L11.4844 17.3062L14.2423 18.3589C14.5475 18.4747 14.8528 18.5273 15.1791 18.5273C15.9791 18.5273 16.7265 18.1694 17.2317 17.5483L20.0107 14.0957L22.7791 17.5483C23.2844 18.1694 24.0317 18.5273 24.8317 18.5273C25.1475 18.5273 25.4633 18.4747 25.7686 18.3589L28.537 17.3062L26.937 23.9273C26.8844 24.1694 26.6738 24.3273 26.4212 24.3273H13.5896Z" fill="white"/>
<path d="M19.9984 16.6215L21.5458 18.5373C22.3458 19.5373 23.5458 20.1057 24.83 20.1057C25.3352 20.1057 25.8195 20.0215 26.2931 19.8425L25.5879 22.7478H14.4195L13.7142 19.8425C14.1879 20.0215 14.6721 20.1057 15.1774 20.1057C16.4616 20.1057 17.651 19.5373 18.4616 18.5373L20.0089 16.6215M19.9984 12.2109C19.6931 12.2109 19.3879 12.3373 19.1774 12.6004L15.9984 16.5583C15.7984 16.8109 15.4931 16.9478 15.1774 16.9478C15.051 16.9478 14.9247 16.9267 14.7984 16.8741L11.1037 15.4636C10.9774 15.4109 10.851 15.3899 10.7247 15.3899C10.0826 15.3899 9.53525 16.0004 9.70367 16.6951L11.5352 24.2846C11.7668 25.232 12.6089 25.8951 13.5774 25.8951H26.3984C27.3668 25.8951 28.2195 25.232 28.4405 24.2846L30.2721 16.6951C30.4405 16.0004 29.8931 15.3899 29.251 15.3899C29.1247 15.3899 28.9984 15.4109 28.8721 15.4636L25.1774 16.8741C25.051 16.9162 24.9247 16.9478 24.7984 16.9478C24.4826 16.9478 24.1774 16.8109 23.9774 16.5583L20.7984 12.6004C20.5879 12.3373 20.2826 12.2109 19.9774 12.2109H19.9984Z" fill="white"/>
</g>
<defs>
<clipPath id="clip0_2199_34621">
<rect width="40" height="40" fill="white"/>
</clipPath>
</defs>
</svg>
