<?xml version="1.0" encoding="UTF-8"?>
<svg xmlns="http://www.w3.org/2000/svg" viewBox="0 0 48 48">
  <defs>
    <style>
      .cls-1 {
        fill: none;
        opacity: .2;
      }
    </style>
  </defs>
  <g id="guid">
    <rect class="cls-1" width="48" height="48"/>
    <rect class="cls-1" x="4" y="4" width="40" height="40"/>
  </g>
  <g id="Layer_2" data-name="Layer 2">
    <path d="M40.37,10.78l-3.15-3.15c-1.56-1.56-3.61-2.34-5.66-2.34-2.05,0-4.09.78-5.66,2.34l-.68.68-2.27,2.27L6.21,27.33c-.43.43-.68.99-.69,1.55l-.15,6.52-.07,3.21c-.05,2.27,1.74,4.09,3.99,4.09.03,0,.06,0,.1,0l3.21-.07,6.52-.15c.56-.01,1.12-.26,1.55-.69l19.02-19.02h0l.68-.68c3.12-3.12,3.12-8.19,0-11.31ZM12.53,39.63l-3.24.07c-.36,0-.59-.16-.72-.29-.13-.13-.28-.37-.28-.73l.07-3.21.09-3.94,8.02,8.02-3.94.09ZM19.69,38.52l-10.22-10.22,15.6-15.6,10.22,10.22-15.6,15.6ZM38.24,19.97l-.68.68-10.22-10.22.68-.68c.94-.94,2.2-1.46,3.54-1.46,1.33,0,2.59.52,3.53,1.46l3.15,3.15c.94.94,1.46,2.2,1.46,3.54s-.52,2.59-1.46,3.54Z"/>
  </g>
</svg>