<svg width="48" height="48" viewBox="0 0 48 48" fill="none" xmlns="http://www.w3.org/2000/svg">
<g clip-path="url(#clip0_2188_3240)">
<path d="M38 27C39.6569 27 41 25.6569 41 24C41 22.3431 39.6569 21 38 21C36.3431 21 35 22.3431 35 24C35 25.6569 36.3431 27 38 27Z" fill="black"/>
<path d="M24 27C25.6569 27 27 25.6569 27 24C27 22.3431 25.6569 21 24 21C22.3431 21 21 22.3431 21 24C21 25.6569 22.3431 27 24 27Z" fill="black"/>
<path d="M10 27C11.6569 27 13 25.6569 13 24C13 22.3431 11.6569 21 10 21C8.34315 21 7 22.3431 7 24C7 25.6569 8.34315 27 10 27Z" fill="black"/>
</g>
<defs>
<clipPath id="clip0_2188_3240">
<rect width="48" height="48" fill="white"/>
</clipPath>
</defs>
</svg>
