<?xml version="1.0" encoding="UTF-8"?>
<svg xmlns="http://www.w3.org/2000/svg" viewBox="0 0 48 48">
  <defs>
    <style>
      .cls-1 {
        fill: none;
        opacity: .2;
      }
    </style>
  </defs>
  <g id="guid">
    <rect class="cls-1" width="48" height="48"/>
    <rect class="cls-1" x="4" y="4" width="40" height="40"/>
  </g>
  <g id="Layer_2" data-name="Layer 2">
    <path d="M33,7c2.76,0,5,2.24,5,5v27.99c0,.69-.6,1.01-1,1.01-.16,0-.31-.04-.46-.12l-10.19-5.4c-.72-.38-1.53-.58-2.34-.58s-1.62.2-2.34.58l-10.19,5.4c-.15.08-.31.12-.46.12-.4,0-1-.32-1-1.01V12c0-2.76,2.24-5,5-5h18M33,4H15c-4.42,0-8,3.58-8,8v27.99c0,2.32,1.91,4.01,4,4.01.62,0,1.26-.15,1.87-.47l10.19-5.4c.29-.15.61-.23.94-.23s.64.08.94.23l10.19,5.4c.61.32,1.25.47,1.87.47,2.1,0,4-1.68,4-4.01V12c0-4.42-3.58-8-8-8h0Z"/>
  </g>
</svg>