<svg width="48" height="48" viewBox="0 0 48 48" fill="none" xmlns="http://www.w3.org/2000/svg">
<g clip-path="url(#clip0_2312_4287)">
<path d="M24 5C13.51 5 5 13.51 5 24C5 27.87 6.16 31.48 8.16 34.48C11.56 39.62 17.38 43 24 43C30.62 43 36.44 39.62 39.84 34.48C41.84 31.48 43 27.87 43 24C43 13.51 34.49 5 24 5ZM22.45 39.92C22.36 39.92 22.28 39.91 22.19 39.9C21.7 39.85 21.22 39.77 20.75 39.67C20.66 39.65 20.56 39.63 20.47 39.61C19.99 39.5 19.52 39.38 19.05 39.23C19 39.21 18.94 39.19 18.89 39.17C18.45 39.02 18.01 38.85 17.59 38.66C17.53 38.63 17.46 38.61 17.4 38.58C16.96 38.38 16.54 38.16 16.12 37.92C16.03 37.87 15.94 37.82 15.85 37.76C15.44 37.52 15.05 37.26 14.66 36.98C14.58 36.93 14.51 36.87 14.44 36.81C14.07 36.53 13.71 36.24 13.36 35.93C13.33 35.9 13.29 35.87 13.26 35.84C12.9 35.51 12.56 35.16 12.22 34.8C12.18 34.75 12.14 34.71 12.1 34.66C15.32 31.67 19.55 29.99 24 29.99C28.45 29.99 32.68 31.67 35.91 34.66C35.87 34.7 35.84 34.74 35.8 34.78C35.46 35.15 35.11 35.51 34.74 35.85C34.72 35.87 34.7 35.88 34.68 35.9C34.32 36.23 33.94 36.53 33.55 36.82C33.49 36.87 33.43 36.92 33.36 36.96C32.97 37.24 32.56 37.51 32.15 37.75C32.07 37.8 31.98 37.85 31.9 37.89C31.48 38.13 31.05 38.35 30.6 38.55C30.54 38.58 30.48 38.6 30.42 38.62C29.99 38.81 29.54 38.98 29.09 39.13C29.04 39.15 28.99 39.17 28.94 39.18C28.47 39.33 28 39.46 27.52 39.57C27.43 39.59 27.34 39.61 27.24 39.63C26.76 39.73 26.28 39.81 25.79 39.86C25.7 39.86 25.62 39.88 25.53 39.88C25.02 39.93 24.5 39.96 23.98 39.96C23.46 39.96 22.94 39.93 22.43 39.88L22.45 39.92ZM37.69 32.25C34.06 28.99 29.26 27 24 27C18.74 27 13.94 28.99 10.31 32.25C8.8 29.77 8 26.94 8 24C8 15.18 15.18 8 24 8C32.82 8 40 15.18 40 24C40 26.93 39.2 29.76 37.69 32.25Z" fill="#595959"/>
<path fill-rule="evenodd" clip-rule="evenodd" d="M18 18C18 14.6829 20.6829 12 24 12C27.3171 12 30 14.6829 30 18C30 21.3171 27.3171 24 24 24C20.6829 24 18 21.3171 18 18ZM21 18C21 16.3414 22.3414 15 24 15C25.6586 15 27 16.3414 27 18C27 19.6586 25.6586 21 24 21C22.3414 21 21 19.6586 21 18Z" fill="#595959"/>
</g>
<defs>
<clipPath id="clip0_2312_4287">
<rect width="48" height="48" fill="white"/>
</clipPath>
</defs>
</svg>
