<?xml version="1.0" encoding="UTF-8"?>
<svg xmlns="http://www.w3.org/2000/svg" viewBox="0 0 48 48">
  <defs>
    <style>
      .cls-1 {
        fill: none;
        opacity: .2;
      }
    </style>
  </defs>
  <g id="guid">
    <rect class="cls-1" width="48" height="48"/>
    <rect class="cls-1" x="4" y="4" width="40" height="40"/>
  </g>
  <g id="Layer_2" data-name="Layer 2">
    <g>
      <path d="M28.24,34.94l-4.24,4.24-4.24-4.24c-.59-.59-1.54-.59-2.12,0s-.59,1.54,0,2.12l4.79,4.79c.43.43,1,.65,1.58.65s1.14-.22,1.58-.65l4.79-4.79c.59-.59.59-1.54,0-2.12s-1.54-.59-2.12,0Z"/>
      <path d="M34,5H14c-4.42,0-8,3.58-8,8v12c0,4.42,3.58,8,8,8h20c4.42,0,8-3.58,8-8v-12c0-4.42-3.58-8-8-8ZM39,25c0,2.76-2.24,5-5,5H14c-2.76,0-5-2.24-5-5v-12c0-2.76,2.24-5,5-5h20c2.76,0,5,2.24,5,5v12Z"/>
      <circle cx="15" cy="15.5" r="1.5"/>
      <circle cx="33" cy="15.5" r="1.5"/>
      <circle cx="27" cy="15.5" r="1.5"/>
      <circle cx="21" cy="15.5" r="1.5"/>
      <path d="M30.5,21h-13c-.83,0-1.5.67-1.5,1.5s.67,1.5,1.5,1.5h13c.83,0,1.5-.67,1.5-1.5s-.67-1.5-1.5-1.5Z"/>
    </g>
  </g>
</svg>