<svg width="48" height="48" viewBox="0 0 48 48" fill="none" xmlns="http://www.w3.org/2000/svg">
<g clip-path="url(#clip0_2188_3230)">
<path d="M34 5H14C9.58 5 6 8.58 6 13V35C6 39.42 9.58 43 14 43H34C38.42 43 42 39.42 42 35V13C42 8.58 38.42 5 34 5ZM39 35C39 37.76 36.76 40 34 40H14C11.24 40 9 37.76 9 35V13C9 10.24 11.24 8 14 8H34C36.76 8 39 10.24 39 13V35Z" fill="black"/>
<path d="M32 14.5H16C15.17 14.5 14.5 15.17 14.5 16C14.5 16.83 15.17 17.5 16 17.5H32C32.83 17.5 33.5 16.83 33.5 16C33.5 15.17 32.83 14.5 32 14.5Z" fill="black"/>
<path d="M32 22.5H16C15.17 22.5 14.5 23.17 14.5 24C14.5 24.83 15.17 25.5 16 25.5H32C32.83 25.5 33.5 24.83 33.5 24C33.5 23.17 32.83 22.5 32 22.5Z" fill="black"/>
<path d="M32 30.5H16C15.17 30.5 14.5 31.17 14.5 32C14.5 32.83 15.17 33.5 16 33.5H32C32.83 33.5 33.5 32.83 33.5 32C33.5 31.17 32.83 30.5 32 30.5Z" fill="black"/>
</g>
<defs>
<clipPath id="clip0_2188_3230">
<rect width="48" height="48" fill="white"/>
</clipPath>
</defs>
</svg>
