<?xml version="1.0" encoding="UTF-8"?>
<svg xmlns="http://www.w3.org/2000/svg" viewBox="0 0 48 48">
  <defs>
    <style>
      .cls-1 {
        fill: none;
        opacity: .2;
      }
    </style>
  </defs>
  <g id="guid">
    <rect class="cls-1" x="0" width="48" height="48"/>
    <rect class="cls-1" x="4" y="4" width="40" height="40"/>
  </g>
  <g id="Layer_2" data-name="Layer 2">
    <path d="M34,5H14c-4.42,0-8,3.58-8,8v22c0,4.42,3.58,8,8,8h20c4.42,0,8-3.58,8-8V13c0-4.42-3.58-8-8-8ZM32,8v5.16l-1.3-.57-1.2-.53-1.2.53-1.3.57v-5.16h5ZM9,35V13c0-2.41,1.72-4.43,4-4.9v31.8c-2.28-.46-4-2.48-4-4.9ZM39,35c0,2.76-2.24,5-5,5H16V8h8v6.69c0,1.15.95,2,2,2,.27,0,.54-.05.8-.17l2.7-1.18,2.7,1.18c.27.12.54.17.8.17,1.05,0,2-.85,2-2v-6.59c2.28.46,4,2.48,4,4.9v22Z"/>
  </g>
</svg>